<svg xmlns="http://www.w3.org/2000/svg" viewBox="0 0 1029.69 1354.12"><defs><style>.cls-1{fill:#f8f8f8;}.cls-2{fill:#101119;}.cls-3{opacity:0.25;}.cls-4{fill:#371a45;}.cls-5{fill:#1d1d1b;}.cls-6{fill:#bcc4cc;}.cls-7{opacity:0.61;}.cls-8{fill:#fff;}.cls-9{fill:#202332;}.cls-10{opacity:0.7;}.cls-11{fill:#111a28;}.cls-12{opacity:0.5;}.cls-13{opacity:0.41;}.cls-14{fill:#568ea3;}.cls-15{fill:#578ea3;}.cls-16{fill:#446d7d;}.cls-17{fill:#3d616f;}.cls-18{fill:#ff9100;}.cls-19{opacity:0.2;}</style></defs><g id="Camada_2" data-name="Camada 2"><g id="Camada_1-2" data-name="Camada 1"><path class="cls-1" d="M543.08,989.33c-3.81.07-7.91.33-12.24.76-46.6,4.6-118.88,28.5-118.88,28.5l-82.21,119.53a17.73,17.73,0,0,1-20.72,6.57c-63.55-23.52-119.31-53.38-165.89-90.81a17.64,17.64,0,0,1-5.46-20c1-2.66,2.21-5.65,3.58-8.86,7.65-17.75,21-42.07,40.24-53.56,32.25-19.22,75.51,6.77,75.51,6.77s57.79-84.79,76.75-105.92,82.73-47.14,82.73-47.14l114,80.56S587.88,988.62,543.08,989.33Z"/><path class="cls-1" d="M943.68,877.41A62.55,62.55,0,0,1,929.8,916.1c-20.76,25.79-65.86,67.1-138.19,60.73-16.55-1.45-31.12-12.92-43.91-31.15C680,849.3,661.57,563.45,661.57,563.45l93.74-76.94s91.57,3.23,125.17,33.31c14.67,13.13,29.32,56.7,40.83,114.67,5.72,28.83,10.68,61.23,14.46,95.24,3,27,5.26,55.11,6.58,83.18C943.39,834.56,943.85,856.21,943.68,877.41Z"/><path class="cls-2" d="M806.46,985.3c-5,0-10.21-.22-15.53-.69-47-4.15-84.4-77-111-216.45C660.53,666.66,653.84,565,653.77,564a7.82,7.82,0,1,1,15.6-1c.07,1,6.71,101.85,25.91,202.41,24.44,128,58.9,200.32,97,203.68,68.9,6.06,111.91-33.63,131.41-57.83a55,55,0,0,0,12.15-33.87c1.34-159-32.2-326.27-60.6-351.7C844.17,497.81,755.93,494.35,755,494.32a7.81,7.81,0,0,1,.55-15.62c3.86.13,94.8,3.69,130.1,35.3,35.13,31.46,67.1,208.1,65.79,363.48A70.59,70.59,0,0,1,935.88,921C915.93,945.78,873.55,985.3,806.46,985.3Z"/><path class="cls-1" d="M942.35,812.91c-29.28,18.9-80.14,32.49-99.8,17.67L845,726.37,846.27,674s36.76-27,75-39.54c17.68-5.78,27.55,20.14,33.31,52.45.07.39.13.83.22,1.26,6.5,37.37,7.65,82.71,9.08,97.4C964.76,794.32,955.86,804.18,942.35,812.91Z"/><path class="cls-2" d="M866.88,844.69c-11.41,0-21.63-2.29-29-7.88a7.81,7.81,0,1,1,9.41-12.47c13.45,10.14,53,3.5,84.59-14.23,17.34-9.72,24.76-19.12,24.3-23.75-.4-4.07-.76-10.16-1.22-17.88-1.84-30.93-6.72-113.12-25.42-125.84a5.9,5.9,0,0,0-5.75-.72c-36.59,12-72.5,38.14-72.86,38.41a7.82,7.82,0,0,1-9.25-12.6c1.55-1.13,38.23-27.89,77.24-40.66a21.54,21.54,0,0,1,19.42,2.64c23.11,15.74,28.75,79.4,32.22,137.85.45,7.55.81,13.51,1.18,17.28,1.25,12.74-10.2,26.56-32.22,38.9C920.26,834.52,890.94,844.69,866.88,844.69Z"/><g class="cls-3"><path class="cls-4" d="M942.35,812.91c1,21.65,1.5,43.3,1.33,64.5A62.55,62.55,0,0,1,929.8,916.1c-20.76,25.79-65.86,67.1-138.19,60.73-16.55-1.45-31.12-12.92-43.91-31.15,1.2-42.22,7.09-45.32,11.77-86.34,5-44.48,13.72-73.37,19.51-79.87l66-53.1,3.16-2.54s2.34,24.75,36.28,23.58c17.43-.6,37.09-6.93,51.31-17.68,13.48-10.21,22-24.41,19.07-41.53,6.5,37.37,7.65,82.71,9.08,97.4C964.76,794.32,955.86,804.18,942.35,812.91Z"/></g><path class="cls-2" d="M946.23,664.16c-12.06,3.69-24.27,7.87-36,12.64-8,3.52-17.28,7-23.41,12.88a8.24,8.24,0,0,0-.59.73c0,.15-.11.1-.16.26a43.7,43.7,0,0,0-.77,5.81c-.72,12.57-.33,25.6,0,38.46s1,25.83,1.65,38.74q-2.93-19.17-5.43-38.44c-1.59-12.88-3.25-25.64-3.8-38.92a50.57,50.57,0,0,1,.24-6.72,10.69,10.69,0,0,1,2.07-5.08c7-8.55,16.32-12.84,25.36-18,11.71-6.17,23.54-11.56,35.77-16.66,9.89-3.69,15.12,10.94,5,14.31Z"/><path class="cls-2" d="M315.18,1153.6a25.3,25.3,0,0,1-8.85-1.59c-65.82-24.34-122.37-55.31-168.09-92a25.4,25.4,0,0,1-7.87-28.87c7-18.45,22.4-51.61,47.13-66.36,28.3-16.88,62.79-3.6,77,3.31,13.47-19.64,57-82.7,73.44-101,19.94-22.22,82.92-48.07,85.59-49.16a7.81,7.81,0,1,1,5.9,14.47c-17.27,7.05-65.29,28.9-79.85,45.13C321.17,898,264,981.77,263.46,982.62A7.81,7.81,0,0,1,253,984.91c-.38-.23-39.7-23.32-67.47-6.75-20.66,12.33-34.26,41.93-40.53,58.47a9.84,9.84,0,0,0,3.05,11.16c44.4,35.67,99.48,65.81,163.72,89.56a9.85,9.85,0,0,0,11.56-3.66l82.22-119.52a7.79,7.79,0,0,1,4-3c3.57-1.18,88-28.92,133.45-29.65,6.79-.11,8-2.51,8.43-3.3,5.74-11.17-12.94-47.21-27.37-68.06a7.82,7.82,0,0,1,12.85-8.9c6.87,9.91,40.51,60.55,28.42,84.1-2.7,5.26-8.72,11.57-22.07,11.79-38.92.63-112,23.45-126.32,28.06l-80.71,117.34A25.49,25.49,0,0,1,315.18,1153.6Z"/><g class="cls-3"><path class="cls-4" d="M546.16,953.57c0,4.88-3.25,7.59-7,17.34-1.59,4.05-4.58,11.06-8.28,19.18-46.6,4.6-118.88,28.5-118.88,28.5l-82.21,119.53a17.73,17.73,0,0,1-20.72,6.57c-63.55-23.52-119.31-53.38-165.89-90.81a17.64,17.64,0,0,1-5.46-20c1-2.66,2.21-5.65,3.58-8.86l21,12.37c73,39.75,126.23,42.53,152-5.78,0,0,49.85-67.19,89.65-94.93s34.43-72,34.43-72l95.91,76.94C537.49,944.36,546.16,948.7,546.16,953.57Z"/></g><path class="cls-2" d="M412.87,1022.93a6.36,6.36,0,0,1-1.54-.19C332,1003.46,284,941.36,282,938.73a6.5,6.5,0,1,1,10.34-7.88c.52.68,47.39,61.1,122.09,79.26a6.5,6.5,0,0,1-1.53,12.82Z"/><path class="cls-1" d="M255,855.12s61.44-12.62,110.13-48.39l-119.66,9.12"/><g class="cls-3"><path class="cls-4" d="M255,855.12s61.44-12.62,110.13-48.39l-119.66,9.12"/></g><path class="cls-2" d="M255,862.93a7.82,7.82,0,0,1-1.57-15.47c.6-.12,60.41-12.74,107.08-47A7.81,7.81,0,0,1,369.71,813c-49.49,36.37-110.6,49.21-113.18,49.74A7.77,7.77,0,0,1,255,862.93Z"/><path class="cls-1" d="M760.19,1034.48l-84.85,110.88c-21.16,27.64-60,35-89.41,16.39-26.09-16.52-48.13-47.29-61.7-79.76-10.19-24.3-15.61-49.55-14.48-70.51a40.38,40.38,0,0,1,7.2-20.63l8.71-12.72s-76.31-23.26-92.74-142.31V804.74s-39.73-2.64-42.64-7.82-39.64-131.61-39.64-131.61S400.41,584.36,471.93,553c33.72-14.8,80.82-20.48,121.15-22.37a765.67,765.67,0,0,1,81.95.59l63.59-3.36s54.08,15.41,83,66.69,37.58,141.81,11.57,188C867,897.42,852.45,986.65,760.19,1034.48Z"/><path class="cls-2" d="M621.24,1179.7a73.54,73.54,0,0,1-39.48-11.36c-50.31-31.85-82.44-108.45-79.81-157.28a48.3,48.3,0,0,1,8.55-24.63l3.28-4.78c-22-10.72-75-46.31-88.6-144.77a7.59,7.59,0,0,1-.08-1.07V812c-37-3.06-40-8.35-41.63-11.27C380.58,795.55,357,715,343.13,667.5a7.79,7.79,0,0,1,.85-6.28c2.08-3.39,51.89-83.39,124.81-115.42C541.25,514,670.14,523,675.59,523.39A7.82,7.82,0,1,1,674.45,539c-1.29-.1-130.48-9.13-199.38,21.13-60.94,26.77-106.41,92-115.94,106.44,13,44.78,33.16,112.91,37.54,125.29,5.43,2,22.59,4.16,36.77,5.11a7.81,7.81,0,0,1,7.29,7.8v30.52c15.72,112.34,86.5,135.17,87.21,135.39a7.81,7.81,0,0,1,4.17,11.89l-8.71,12.72a32.58,32.58,0,0,0-5.84,16.63c-2.4,44.42,28.12,115.11,72.55,143.24,25.65,16.23,60.35,9.85,79-14.53L754,1029.74a7.88,7.88,0,0,1,2.61-2.19c82-42.52,104.62-122,69.07-242.89a7.78,7.78,0,0,1,.69-6c23.14-41,17.52-128.65-11.56-180.27-26.89-47.73-77.81-62.88-78.32-63a7.82,7.82,0,0,1,4.3-15c2.33.66,57.51,16.9,87.63,70.38,28.2,50,39.37,141.89,13.15,192.67,17.43,60.56,20.69,110.39,10,152.24-11.7,45.67-40.69,81-86.17,105l-83.81,109.5A76,76,0,0,1,621.24,1179.7Z"/><path class="cls-1" d="M490.74,688.2H655.58A26.76,26.76,0,0,1,682.34,715v99.82a26.76,26.76,0,0,1-26.09,26.75L491.4,845.61A26.76,26.76,0,0,1,464,818.86V715A26.76,26.76,0,0,1,490.74,688.2Z"/><path class="cls-2" d="M490.71,853.43a34.56,34.56,0,0,1-34.54-34.57V715a34.61,34.61,0,0,1,34.57-34.57H655.58A34.61,34.61,0,0,1,690.16,715v99.82a34.38,34.38,0,0,1-33.72,34.56L491.6,853.42Zm0-157.42A19,19,0,0,0,471.8,715V818.86a18.94,18.94,0,0,0,19.41,18.94l164.84-4.09a18.85,18.85,0,0,0,18.48-18.94V715A19,19,0,0,0,655.58,696Z"/><path class="cls-1" d="M443.24,690H608.08a26.76,26.76,0,0,1,26.76,26.76v99.81a26.76,26.76,0,0,1-26.09,26.75L443.9,847.41a26.75,26.75,0,0,1-27.42-26.75V716.76A26.76,26.76,0,0,1,443.24,690Z"/><path class="cls-5" d="M556.82,852.2a7.59,7.59,0,0,1-7.58-7.4c-.32-13.41-.72-34.41-.34-45.23-11.88-3-47.53-7.67-79.56-11a7.57,7.57,0,0,1-6.79-7.18l-4.34-91a7.59,7.59,0,1,1,15.16-.72l4,84.53c80.09,8.51,83.44,13.16,85.47,16a8.1,8.1,0,0,1,1.36,6.49c-.52,3.31-.32,26.94.19,47.79a7.59,7.59,0,0,1-7.4,7.77Zm-4.48-51.54h0Zm-2.93-7.3a4.37,4.37,0,0,0-.09.5C549.35,793.67,549.38,793.51,549.41,793.36Zm0,0Z"/><path class="cls-2" d="M443.21,855.24a34.58,34.58,0,0,1-34.54-34.58V716.76a34.61,34.61,0,0,1,34.57-34.57H608.08a34.61,34.61,0,0,1,34.58,34.57v99.81a34.38,34.38,0,0,1-33.72,34.57L444.1,855.23Zm0-157.42a19,19,0,0,0-18.94,18.94v103.9a18.94,18.94,0,0,0,19.41,18.94l164.84-4.09A18.83,18.83,0,0,0,627,816.57V716.76a19,19,0,0,0-18.95-18.94Z"/><path class="cls-6" d="M629.67,786l-.61,11.45A14.31,14.31,0,0,1,615.3,811l-209.74,7.48-289.9,10.36A14.31,14.31,0,0,1,100.86,815l-.37-11.9a14.22,14.22,0,0,1,5.35-11.57h0a14,14,0,0,1,8.43-3.16l289.13-10,.58,0L614.89,771A14.31,14.31,0,0,1,629.67,786Z"/><g class="cls-7"><path class="cls-8" d="M629.67,786l-.41,7.94a14.36,14.36,0,0,0-14.37-10.8L404.2,790.48l-.3-12.18,211-7.33A14.31,14.31,0,0,1,629.67,786Z"/></g><path class="cls-6" d="M406,817.4l-.48,0L105.86,791.52h0l-11.38-24.9L8,577.36a14.84,14.84,0,0,1,1.54-15l6.72-9.14a14.87,14.87,0,0,1,11.21-6l251.15-13.28a39.69,39.69,0,0,1,39.08,25.18l.52,1.3,85.24,217.93,1.47,22.39Z"/><g class="cls-7"><path class="cls-8" d="M403.66,781.94,322,573.18A39.67,39.67,0,0,0,282.91,548L31.76,561.28a14.86,14.86,0,0,0-11.2,6l-6.72,9.14A14.75,14.75,0,0,0,11,584l-3-6.61a14.84,14.84,0,0,1,1.54-15l6.72-9.14a14.87,14.87,0,0,1,11.21-6l251.15-13.28a39.69,39.69,0,0,1,39.08,25.18l85.76,219.23Z"/></g><path class="cls-5" d="M115.14,835.47a20.92,20.92,0,0,1-20.89-20.26l-.36-11.91a21,21,0,0,1,20.17-21.55h0l500.6-17.39a20.93,20.93,0,0,1,21.61,22l-.6,11.45a20.8,20.8,0,0,1-20.14,19.8L115.9,835.45Zm-.62-40.5h0a7.7,7.7,0,0,0-7.42,7.92l.37,11.91a7.69,7.69,0,0,0,8,7.44l499.63-17.85a7.65,7.65,0,0,0,7.4-7.28l.6-11.45a7.67,7.67,0,0,0-7.94-8.08Z"/><path class="cls-2" d="M406,824a6.61,6.61,0,0,1-6.59-6.17l-2.52-38.06L311.5,561.5a33.07,33.07,0,0,0-32.58-21L27.77,553.79a8.23,8.23,0,0,0-6.22,3.35l-6.72,9.14a8.25,8.25,0,0,0-.86,8.33l97.87,214.16a6.61,6.61,0,1,1-12,5.5L1.94,580.11a21.48,21.48,0,0,1,2.24-21.66l6.72-9.14a21.39,21.39,0,0,1,16.17-8.73l251.15-13.29a46.3,46.3,0,0,1,45.6,29.39l85.76,219.23a6.33,6.33,0,0,1,.44,2L412.6,817a6.62,6.62,0,0,1-6.16,7Z"/><g class="cls-3"><path class="cls-5" d="M405.56,818.48l-289.9,10.36A14.31,14.31,0,0,1,100.86,815l-.37-11.9a14.22,14.22,0,0,1,5.35-11.57l-11.38-24.9C229,763.26,313.52,714.38,304.35,589.8V553l13.83,7.43,85.24,217.93.58,0c.33,8,.63,15.54.89,22.41.24,6.2.46,11.81.63,16.64C405.54,817.74,405.54,818.11,405.56,818.48Z"/></g><path class="cls-1" d="M145.74,837.62s12.64-48,63.58-39.74,62.85,58.88,27.09,77.31-149.55,15.53-135.1-74.78C101.31,800.41,105.65,826.78,145.74,837.62Z"/><g class="cls-3"><path class="cls-4" d="M236.4,875.18c-24.71,12.72-86.65,15.28-117.82-14.13,30.2,8.08,65,4.14,82.06-4.64,24.1-12.42,26.55-39.45,10-58.28C260.44,807.06,271.86,856.91,236.4,875.18Z"/></g><path class="cls-5" d="M189.59,892c-24,0-50.09-5.43-69.06-19.17-15.82-11.46-33.35-33.54-26.94-73.6a7.82,7.82,0,0,1,7.7-6.58h0a7.81,7.81,0,0,1,7.71,6.55c.14.72,3.93,18.78,31.83,28.76,8.11-19.12,29.62-44.28,69.73-37.74,28.9,4.72,50,23,53.7,46.49,3,18.8-6.33,36.22-24.29,45.47C228.39,888.11,209.74,892,189.59,892Zm-80.78-65.07a50.47,50.47,0,0,0,20.89,33.24c29.7,21.52,81.75,19.14,103.13,8.12,11.94-6.15,17.93-17,16-29.14-2-12.71-13.9-29.12-40.78-33.5-43.43-7.09-54.32,32.33-54.76,34a7.81,7.81,0,0,1-9.6,5.55C127.36,840.75,116.29,833.87,108.81,826.88Z"/><path class="cls-1" d="M729.54,723.16c-2.86,24.23-13.35,47.75-28.41,59.3l-71.44-24S612.81,778,570.28,773.68s-62-47.42-62-47.42-18.14,37.67-40.09,22.5c-6-4.14-8.87-9.24-9.82-14.57-1.24-6.93.78-14.28,3.53-20.46a64.09,64.09,0,0,1,13.81-19.55l40.7-40.07c34.31-45.15,82.36-12.64,115.59,6.5h81.27C727.87,675.11,732.36,699.47,729.54,723.16Z"/><path class="cls-2" d="M701.13,790.27a7.86,7.86,0,0,1-2.49-.4l-67.12-22.5c-7.84,6.22-27.33,17.63-62,14.09-31.9-3.25-51.81-25.62-61.44-40-5.23,7.12-13.07,15.23-22.85,17.82-7.34,1.94-14.77.51-21.5-4.14-14.24-9.85-17.42-25.7-9-44.64a72,72,0,0,1,15.45-21.94l40.32-39.68c36.3-47.17,86-18.09,118.93,1.17l4.63,2.7h79.18a7.82,7.82,0,0,1,5.49,2.26c13.84,13.7,20.84,36.4,19.21,62.3-1.88,29.82-14.46,57.8-32,71.3A7.81,7.81,0,0,1,701.13,790.27ZM629.69,750.7a7.85,7.85,0,0,1,2.48.4l67.26,22.54c12.4-11.68,21.44-34,22.9-57.26,1.26-19.93-3.28-37.18-12.5-48H632a7.85,7.85,0,0,1-3.9-1c-2.11-1.22-4.29-2.49-6.52-3.8-40.22-23.53-73-38.82-98.95-4.74a8.24,8.24,0,0,1-.74.84l-40.71,40.06A56.45,56.45,0,0,0,469,716.91c-7.82,17.53.47,23.26,3.59,25.42,3.9,2.7,6.77,2.37,8.6,1.89,9-2.36,17.69-16.56,20-21.35a7.81,7.81,0,0,1,14.15.18c.17.37,18.3,39.05,55.71,42.86s52.58-12.35,52.72-12.51A7.8,7.8,0,0,1,629.69,750.7Z"/><path d="M501.39,722.5l29.06-36.6L515.08,730a7.93,7.93,0,1,1-13.69-7.54Z"/><polygon points="622.56 755.32 640.98 736.29 636.82 761.71 622.56 755.32 622.56 755.32"/><g class="cls-3"><path class="cls-5" d="M729.54,723.16c-2.86,24.23-13.35,47.75-28.41,59.3l-71.44-24S612.81,778,570.28,773.68s-62-47.42-62-47.42-18.14,37.67-40.09,22.5c-6-4.14-8.87-9.24-9.82-14.57l2.4-2.4s16.26,10.83,34-13.38C512,694.7,534.57,674.81,535.48,674c-.57,1.38-18.17,45.42,17.36,66.06,36.13,21,79.84-36.48,79.84-36.48s26,22.76,88.86,19.51A66.24,66.24,0,0,1,729.54,723.16Z"/></g><path class="cls-2" d="M520.91,971.93c22.32-16.07,57.93-32.22,84.75-18.32,12.38,7.45,23.07,17.56,32.41,28.4a186.11,186.11,0,0,1,23.5,34.42c-16.26-17.3-33.84-33-54.46-44.52-7.76-4.23-15.87-7.51-24.82-7.68-18.56.09-36.9,9.58-51.87,20.11-8.4,6.2-17.72-5.86-9.51-12.41Z"/><path class="cls-2" d="M636,1178a7.59,7.59,0,0,1-2.74-14.66c2-.78,4.82-2.44,6.34-7.93,7.78-28.13-27.91-102.64-54.84-137.22-28-35.93-50.5-32.42-51.44-32.26a7.52,7.52,0,0,1-8.94-5.85,7.64,7.64,0,0,1,5.9-9c1.3-.28,32.14-6.26,66.45,37.8,25.53,32.78,67.78,113.39,57.49,150.58-2.43,8.82-7.79,15-15.48,18A7.56,7.56,0,0,1,636,1178Z"/><path class="cls-2" d="M587.74,951.16a2.79,2.79,0,0,0-.42.49,1.51,1.51,0,0,0-.12.19c.26-.42.88-1.51,1.15-1.94a311,311,0,0,1,40.07-53.3c20.94-23,50.59-39.46,81.72-42.49a97.54,97.54,0,0,1,23,1.21A111.17,111.17,0,0,0,711,859c-21.13,6.08-39.59,18.6-55.28,33.7-5.24,5-10.6,9.84-15.81,14.94-12.91,13-23.95,27.77-33.81,43.16-.89,1.43-3.47,5.6-4.31,7l-.71,1.21-.39.64c-5.76,10.22-20.19.7-13-8.56Z"/><path class="cls-2" d="M725,1086.91a6.49,6.49,0,0,1-6.4-5.44C705.8,1004.18,657.49,941.29,611,941.29a6.5,6.5,0,0,1,0-13c53.52,0,106.45,66.35,120.51,151a6.5,6.5,0,0,1-5.35,7.48A6.65,6.65,0,0,1,725,1086.91Z"/><path class="cls-2" d="M711.91,652.92l43.41.47-40.77,14.93c-12,3.51-15.11-14.72-2.64-15.4Z"/><path d="M783.62,808.46c-39.94,0-82.77-17.65-85.51-18.79a7.82,7.82,0,0,1,6-14.42c25.81,10.79,98.21,32.21,123,2.23a7.81,7.81,0,1,1,12,9.95C826.09,803.27,805.28,808.46,783.62,808.46Z"/><path class="cls-2" d="M689.1,660l-1.88-35.17,16.91,30.9a8,8,0,1,1-15,4.27Z"/><path class="cls-2" d="M420.77,691a272.11,272.11,0,0,1,6-34,167.46,167.46,0,0,1,11-32.16c-3.51,16.45-3.69,33.06-2.83,49.68.32,5.46.76,11.08,1.44,16.28.91,11.6-16.25,11.83-15.63.19Z"/><g class="cls-3"><path class="cls-5" d="M833.16,782.46c33.79,115,19.29,204.19-73,252l-84.85,110.88c-21.16,27.64-60,35-89.41,16.39-26.09-16.52-48.13-47.29-61.7-79.76q3.79,3.06,7.67,6.67c88.12,82.36,79-36.84,79-36.84,84.62,73.1,40.77-47.18,40.08-49.13l31.32,24.57s7.41-19.5,73-76.94S782.4,824.61,782.4,824.61c-46.6,9.22-100.06-24.92-100.06-23.9s-42.44-5.35-44.07-4.27-.36-35.18-.36-35.18L705,784l24.55-60.82c17.73-.26,56.79-.41,56.79-.41,44.54-93.2-38-144.24-38-144.24-100.74,44.32-224.34,12-228.94,10.73l73.73-58.65a765.67,765.67,0,0,1,81.95.59l63.59-3.36s54.08,15.41,83,66.69S859.17,736.32,833.16,782.46Z"/></g><g class="cls-3"><path class="cls-4" d="M909,520.1l-.65-.26C908.59,519.73,909,520.1,909,520.1Z"/></g><circle class="cls-1" cx="570.37" cy="298.87" r="289.93"/><g class="cls-3"><path class="cls-4" d="M841.41,401.83c-56.87,149.71-224.32,225-374,168.09a288.52,288.52,0,0,1-118.68-84.07A289.54,289.54,0,0,0,414.49,521c149.68,56.86,317.13-18.38,374-168.07C827.2,251,804.65,140.85,739.06,63,843.67,137.67,889.2,276,841.41,401.83Z"/></g><path class="cls-9" d="M301.18,410c16.22,37.34,43.4,77.46,88.19,115.44,128.31,85.46,301.15,52.42,374.24-125.23L752.06,253c-6.15-22.7-18.72-44.23-36-63.73C610.39,69.76,329.41,26.2,283.34,257.68,283.34,257.68,265,326.86,301.18,410Z"/><g class="cls-10"><path class="cls-11" d="M301.18,410c16.22,37.34,43.4,77.46,88.19,115.44,128.31,85.46,301.15,52.42,374.24-125.23L752.06,253c-6.15-22.7-18.72-44.23-36-63.73C754.87,390.5,507.69,595.17,303,410.9Z"/></g><path class="cls-2" d="M558.48,595.32c-5.6,0-11.3-.19-17.13-.57a7.32,7.32,0,0,1,1-14.6c73.41,4.8,136.29-21.89,186.94-79.31,34.61-39.24,51.4-80.26,54.34-87.87l-6.17-181.51C749,167,691.51,115.19,615.39,85.39c-77.93-30.51-162.43-32-226-4A7.32,7.32,0,0,1,383.45,68c67.1-29.55,155.8-28.15,237.27,3.75C701,103.19,761.61,158.29,791.4,226.9a7.36,7.36,0,0,1,.6,2.66l6.26,184.37a7.27,7.27,0,0,1-.42,2.7c-.69,1.95-17.42,48.16-57.28,93.5C705.75,549.74,646.53,595.31,558.48,595.32Z"/><path class="cls-2" d="M533.26,577.64c-50.67,0-102.12-15.77-147.86-46.24a7.15,7.15,0,0,1,7.93-11.9c63.34,42.19,138.06,54.65,205,34.21,69.16-21.12,125.23-76,158-154.63L745,254.23c-11.43-41.36-47.36-82-98.68-111.65S533.68,97.12,477.9,99c-58.54,2-160.74,25.4-187.56,160.09a7.15,7.15,0,1,1-14-2.79c21-105.45,94.29-168,201.1-171.59C602.35,80.51,733.86,158.27,759,251.14a7.06,7.06,0,0,1,.22,1.3l11.56,147.23a7.22,7.22,0,0,1-.52,3.28c-34.35,83.5-93.92,141.9-167.71,164.44A236.75,236.75,0,0,1,533.26,577.64Z"/><path class="cls-2" d="M570.49,597.75a298.7,298.7,0,0,1-106.2-19.63c-154-58.5-231.66-231.35-173.16-385.33A298.71,298.71,0,0,1,676.45,19.63C830.42,78.12,908.1,251,849.61,405a299.34,299.34,0,0,1-279.12,192.8Zm-.24-580.18A281.71,281.71,0,0,0,307.54,199C252.48,344,325.6,506.65,470.52,561.7a281.16,281.16,0,0,0,362.68-163l8.21,3.12-8.21-3.12c55-144.93-18.06-307.62-163-362.68A281.07,281.07,0,0,0,570.25,17.57Z"/><path class="cls-1" d="M869.74,320.87c.68,52-25.14,93.88-65.58,94.41s-73.79-41.18-74.47-93.18,31.55-94.57,72-95.1S869.06,268.88,869.74,320.87Z"/><g class="cls-3"><path class="cls-4" d="M804.15,415.28c-40.44.53-73.78-41.18-74.45-93.17a115,115,0,0,1,8.49-45.57c6.7,43.9,37.08,76.88,73.06,76.42,26.75-.36,47.11-18.79,57.64-46.28.51,4.63.79,9.38.85,14.19C870.41,372.86,844.61,414.74,804.15,415.28Z"/></g><path class="cls-2" d="M803.38,424.06c-22,0-42.64-10.69-58.22-30.19-15.28-19.12-23.89-44.56-24.25-71.65-.74-56.75,35.44-103.4,80.66-104,22-.23,42.12,10.72,56.25,31,13,18.63,20.34,44,20.7,71.54.78,59.28-30.45,102.72-74.25,103.3Zm-.94-188.29h-.64c-35.54.46-63.95,39.14-63.33,86.21.3,23.2,7.55,44.84,20.4,60.92,12.34,15.43,28.38,23.82,45.17,23.59,33.63-.44,57.57-36.4,56.92-85.51-.31-24-6.54-45.95-17.54-61.73C835.93,248.51,822.76,235.77,802.44,235.77Z"/><path class="cls-2" d="M828.61,409.15c-35.4,0-64.61-39.52-65.27-88.51-.3-23.42,5.86-45.6,17.33-62.47,12-17.67,28.43-27.53,46.21-27.76a47.12,47.12,0,0,1,10.76,1.12,7.32,7.32,0,1,1-3.36,14.24,33.32,33.32,0,0,0-7.22-.73c-12.86.16-25,7.75-34.29,21.36-9.8,14.41-15.06,33.61-14.8,54,.55,41,23.22,74.08,50.62,74.08h.46a31.74,31.74,0,0,0,10.72-2,7.32,7.32,0,1,1,5.12,13.71,46.49,46.49,0,0,1-15.65,2.9Z"/><g class="cls-12"><path class="cls-8" d="M496.94,144.31C411,197.9,361,272.17,352.14,370c-.71,7.84-11.81,8.92-14,1.35C302.33,247.26,319.93,140,492.76,131.06A7.17,7.17,0,0,1,496.94,144.31Z"/></g><g class="cls-12"><path class="cls-8" d="M664.2,325.6l-1.53.13a27.36,27.36,0,0,1-29.15-22.4c-.29-1.58-.59-3.12-.89-4.6a27.22,27.22,0,0,1,21.11-32.21l1.16-.24a27.37,27.37,0,0,1,31.65,18.77q.91,3,1.74,5.91A27.36,27.36,0,0,1,664.2,325.6Z"/></g><g class="cls-12"><path class="cls-8" d="M608.19,491.58h0a27.29,27.29,0,0,1-8.93-38.24,195.76,195.76,0,0,0,27.32-65.91,27.46,27.46,0,0,1,32.54-21.34l3.83.83a27.28,27.28,0,0,1,20.85,33.15c-9.23,37.15-26.57,66.28-39.4,84.07A27.32,27.32,0,0,1,608.19,491.58Z"/></g><g class="cls-3"><path class="cls-4" d="M464,925.18s96.09,27,170.86-28.68l-34.62,51.65-12.34,8.16c-26.06,1.45-47.2,7.38-60.41,20.51C501,967.13,479.11,951,464,925.18Z"/></g><g class="cls-3"><path class="cls-4" d="M433.3,641.38s-32.45,29-49.47,86.86l22.18,48,7.76-5.25s3.61-59.86,2.71-60.94,9.65-12.2,12.1-28.18A170.24,170.24,0,0,0,430.85,656"/></g><path class="cls-2" d="M263.21,973.46l13.12,30L250.81,983a8,8,0,0,1-1.25-11.31c3.58-4.72,11.42-3.63,13.65,1.8Z"/><path class="cls-2" d="M791.25,563.32a7.82,7.82,0,0,1-6.14-12.65c37.07-47.11,94.14-38.94,96.55-38.57a7.81,7.81,0,0,1-2.36,15.45c-2.07-.31-50.59-7-81.91,32.78A7.8,7.8,0,0,1,791.25,563.32Z"/><g class="cls-3"><path class="cls-4" d="M794.34,490.2s-44.45,20.46,17.86,88.31c-22.38-22.93-45.62-40.78-70.34-49.64L776.26,488"/></g><path class="cls-8" d="M235,626.67a56.65,56.65,0,0,1,2.52,6.53c-9.1,7.42-27.08,17.83-48.58,27.67s-41.14,16.63-52.7,18.66a57.59,57.59,0,0,1-3.3-6.17c0-.1-.09-.2-.13-.31-.43-.95-.83-1.9-1.2-2.86a55.31,55.31,0,0,1-2.15-6.81c0-.09,0-.19-.07-.28a56.15,56.15,0,0,1,93-54.06,54.59,54.59,0,0,1,6.89,7.78c.17.23.34.45.5.69a55.64,55.64,0,0,1,3.75,6.08c.42.78.82,1.59,1.21,2.4C234.79,626.22,234.89,626.44,235,626.67Z"/><path class="cls-8" d="M239.88,654.86a55,55,0,0,1-1,6.79,56.15,56.15,0,0,1-81.68,37.68,57.93,57.93,0,0,1-6.11-3.84,281.41,281.41,0,0,0,46.06-16.69A281.64,281.64,0,0,0,239.88,654.86Z"/><path class="cls-8" d="M237.51,633.2c-9.1,7.42-27.08,17.83-48.58,27.67s-41.14,16.63-52.7,18.66a57.59,57.59,0,0,1-3.3-6.17l-.14-.3c-.42-1-.82-1.91-1.19-2.87a55.31,55.31,0,0,1-2.15-6.81c0-.09,0-.19-.07-.28a55.45,55.45,0,0,1-1.48-10.25,56.26,56.26,0,0,1,24.49-49.24,56.26,56.26,0,0,0-8.87,33.23A55.46,55.46,0,0,0,145,647.08l.06.28c0,.12.08.27.13.45,2.86,9.64,13.24,13.68,23.26,12.77,19.09-1.73,60.43-24.08,69.23-29.23C238.29,632.83,237,631.7,237.51,633.2Z"/><path class="cls-8" d="M197.13,678.8a281.64,281.64,0,0,0,42.75-23.94,55,55,0,0,1-1,6.79c-9,6.58-23.31,14.71-40,22.35-16,7.32-30.92,12.7-41.67,15.33a57.93,57.93,0,0,1-6.11-3.84A281.41,281.41,0,0,0,197.13,678.8Z"/><path class="cls-8" d="M234.68,626c.11.23.21.45.31.68a56.65,56.65,0,0,1,2.52,6.53c-9.1,7.42-27.08,17.83-48.58,27.67s-41.14,16.63-52.7,18.66a57.59,57.59,0,0,1-3.3-6.17c0-.1-.09-.2-.13-.31,11-1.26,31-7.84,52.87-17.86C208.45,644.77,227.06,633.48,234.68,626Z"/><path class="cls-8" d="M127.81,654.74,128,651c7.65.37,27.63-6.07,48.58-15.66,25-11.44,41.13-22.37,44.15-27.26l3.22,2c-4,6.47-22.39,18-45.79,28.71C156.36,648.71,136.13,655.14,127.81,654.74Z"/><path class="cls-8" d="M130.53,635.64,130,631.9c8.6-1.31,23.49-6.5,38.87-13.53,16.11-7.37,30-15.49,36.36-21.18l2.53,2.81c-6.58,5.93-20.88,14.29-37.32,21.81C154.73,629,139.45,634.28,130.53,635.64Z"/><path class="cls-8" d="M129.38,665v-3.78c8.78,0,29.42-6.74,51.37-16.78,23-10.53,42.32-22.34,46.94-28.72l3.07,2.22c-5,7-24.51,19-48.44,29.94C159.58,658.28,138.8,665,129.38,665Z"/><path class="cls-8" d="M165.65,704l-.07-.94-.45-.83.18-.1h.19c7.59-.58,22-5.32,36.82-12.08s27.53-14.4,33.08-19.83l1.33,1.35c-5.7,5.58-18.58,13.32-33.63,20.2S173.56,703.37,165.65,704Z"/><path class="cls-8" d="M239.88,654.86a56.14,56.14,0,0,1-88.81,40.63,281.41,281.41,0,0,0,46.06-16.69A281.64,281.64,0,0,0,239.88,654.86Z"/><path class="cls-8" d="M267.25,620.65c3.42,7.48-7.69,20.53-27.37,34.21a281.64,281.64,0,0,1-42.75,23.94,281.41,281.41,0,0,1-46.06,16.69c-23.22,5.94-40.36,5.82-43.78-1.66-3.11-6.79,5.77-18.17,22.16-30.45a55.31,55.31,0,0,0,2.15,6.81c-4.53,3.74-6.76,6.7-6,8.41s4.62,2,10.6.93c11.56-2,31.2-8.83,52.7-18.66s39.48-20.25,48.58-27.67c4.7-3.84,7-6.88,6.23-8.63s-4.48-2-10.27-1a55.64,55.64,0,0,0-3.75-6.08C249.73,613.13,264.15,613.86,267.25,620.65Z"/><path class="cls-8" d="M131.25,669.28c.12.3.23.61.35.91-4.53,3.74-6.76,6.69-6,8.41s4.62,2,10.6.93c7.67-1.34,18.9-4.79,31.86-9.83a8.28,8.28,0,0,0,0,3.18c-5,1.88-9.86,3.54-14.46,5-20,6.15-30.44,6.06-31.67,3.38C121.25,679.65,123.33,675.7,131.25,669.28Z"/><path class="cls-8" d="M129.76,666.55l.48.6a86.75,86.75,0,0,0-9.59,8.48C122.42,673,125.45,670,129.76,666.55Z"/><path class="cls-8" d="M130.72,667.75l-.48-.6.23-.17Z"/><path class="cls-8" d="M120.65,675.63c-1.85,2.71-2.32,5-1.46,6.86s2.81,2.86,5.54,3.29c7.11,1.12,19.35-1.8,29.81-5,4.73-1.46,9.72-3.17,14.87-5.1a9.94,9.94,0,0,0,4.36,2.94c-7.61,2.91-15,5.37-21.9,7.3-24.65,6.89-35.36,5-37,1.36C113.89,685.23,115.24,681.31,120.65,675.63Z"/><path class="cls-8" d="M196.12,679.26a279.71,279.71,0,0,1-45.05,16.23c-23.23,6-40.37,5.82-43.79-1.66-3.1-6.79,5.78-18.17,22.17-30.45.17.68.35,1.36.55,2l-.94-1.22c-9.51,7.28-20.19,17.42-17,24.35,1.23,2.69,4.14,4.13,8,4.74,9,1.43,23.26-1.79,32.67-4.42a265.9,265.9,0,0,0,26.34-9A66.3,66.3,0,0,0,196.12,679.26Z"/><path class="cls-8" d="M169.41,675.67c-5.15,1.93-10.14,3.64-14.87,5.1-10.46,3.21-22.7,6.13-29.81,5-2.73-.43-4.7-1.46-5.54-3.29s-.39-4.15,1.46-6.86a86.75,86.75,0,0,1,9.59-8.48l.48.6c.17.51.35,1,.53,1.53-7.92,6.42-10,10.37-9.28,11.94,1.23,2.68,11.66,2.77,31.67-3.38,4.6-1.42,9.45-3.08,14.46-5a6.82,6.82,0,0,0,.45,1.41A6.62,6.62,0,0,0,169.41,675.67Z"/><path class="cls-8" d="M130.24,667.15a86.75,86.75,0,0,0-9.59,8.48c1.77-2.61,4.8-5.62,9.11-9.08Z"/><path class="cls-8" d="M130.72,667.75l.95,1.19-.42.34C131.07,668.77,130.89,668.26,130.72,667.75Z"/><path class="cls-8" d="M226.47,647.86a310.12,310.12,0,0,1-35,18.6c-7.47,3.42-14.92,6.53-22.07,9.21a6.62,6.62,0,0,1-.86-1.38,6.82,6.82,0,0,1-.45-1.41c7.15-2.66,14.62-5.77,22.11-9.2a306.2,306.2,0,0,0,34.63-18.42c17.74-11.12,24.49-19.07,23.27-21.74-.73-1.6-5.22-2.62-15.63-.69l-.42-2.26-.14-.75c5.46-1,9.73-1.34,12.86-1s5.25,1.52,6.11,3.39C253.92,628.86,239.28,639.82,226.47,647.86Z"/><path class="cls-8" d="M179,679.86a265.9,265.9,0,0,1-26.34,9c-9.41,2.63-23.62,5.85-32.67,4.42-3.84-.61-6.75-2-8-4.74-3.17-6.93,7.51-17.07,17-24.35l.94,1.22c.15.53.3,1.05.47,1.57l-.23.17-.48-.6c-4.31,3.46-7.34,6.47-9.11,9.08-5.41,5.68-6.76,9.6-5.82,11.64,1.68,3.68,12.39,5.53,37-1.36,6.91-1.93,14.29-4.39,21.9-7.3A23.09,23.09,0,0,0,179,679.86Z"/><path class="cls-8" d="M129.76,666.55l.48.6a86.75,86.75,0,0,0-9.59,8.48C122.42,673,125.45,670,129.76,666.55Z"/><path class="cls-8" d="M130,665.41l.92,1.21-.45.36C130.3,666.46,130.15,665.94,130,665.41Z"/><path class="cls-8" d="M233.8,651.76a292.3,292.3,0,0,1-39.23,21.45c-5.21,2.39-10.41,4.61-15.54,6.65a23.09,23.09,0,0,1-5.26-1.25c6.4-2.43,13-5.18,19.53-8.19a287.29,287.29,0,0,0,38.81-21.22c21.33-14.14,26.93-23.46,25.25-27.13-.93-2-4.77-3.58-12.58-3.22a87.24,87.24,0,0,0-12.72,1.72l-.85.17-.62-3c11.73-2.44,26.38-3.89,29.55,3C264.27,629.8,245.41,644.05,233.8,651.76Z"/><path class="cls-8" d="M267.25,620.65c3.42,7.48-7.69,20.53-27.37,34.21a281.64,281.64,0,0,1-42.75,23.94,281.41,281.41,0,0,1-46.06,16.69c-23.22,5.94-40.36,5.82-43.78-1.66-3.11-6.79,5.77-18.17,22.16-30.45a55.31,55.31,0,0,0,2.15,6.81c-4.53,3.74-6.76,6.7-6,8.41s4.62,2,10.6.93c11.56-2,31.2-8.83,52.7-18.66s39.48-20.25,48.58-27.67c4.7-3.84,7-6.88,6.23-8.63s-4.48-2-10.27-1a55.64,55.64,0,0,0-3.75-6.08C249.73,613.13,264.15,613.86,267.25,620.65Z"/><g class="cls-13"><path class="cls-8" d="M237.52,633.39c-1.06.86-2.23,1.77-3.53,2.71q-.8-2.22-1.78-4.39c-.11-.23-.21-.45-.32-.67-.38-.82-.79-1.62-1.21-2.41a55.64,55.64,0,0,0-3.75-6.08l-.49-.69a56.13,56.13,0,0,0-92.38,2.7,56.15,56.15,0,0,1,88.28-15.33,54.66,54.66,0,0,1,6.9,7.78l.5.69a55.57,55.57,0,0,1,3.74,6.08c.43.79.83,1.59,1.21,2.41.11.22.22.44.32.67A56.57,56.57,0,0,1,237.52,633.39Z"/></g><path class="cls-8" d="M235,626.67a56.65,56.65,0,0,1,2.52,6.53c-9.1,7.42-27.08,17.83-48.58,27.67s-41.14,16.63-52.7,18.66a57.59,57.59,0,0,1-3.3-6.17c-.48-1.05-.92-2.11-1.33-3.17a55.31,55.31,0,0,1-2.15-6.81,56.11,56.11,0,0,1,104-39.79C234,624.59,234.51,625.62,235,626.67Z"/><path class="cls-14" d="M230.44,628.89a52.1,52.1,0,0,1,2.28,5.91c-8.23,6.72-24.5,16.13-43.95,25s-37.21,15-47.67,16.89a50.53,50.53,0,0,1-3-5.59l-.12-.27c-.39-.86-.75-1.73-1.09-2.59A52.36,52.36,0,0,1,135,662.1l-.06-.25A50.79,50.79,0,0,1,219,612.94a49.39,49.39,0,0,1,6.24,7q.24.32.45.63a50,50,0,0,1,3.4,5.49c.38.72.74,1.45,1.09,2.18Z"/><path class="cls-15" d="M234.86,654.4A50.77,50.77,0,0,1,167.64,698a50.83,50.83,0,0,1-13.12-6.83,253.49,253.49,0,0,0,41.67-15.1A253.57,253.57,0,0,0,234.86,654.4Z"/><path class="cls-15" d="M232.72,634.8c-8.23,6.71-24.5,16.14-43.95,25s-37.21,15-47.67,16.89a50.53,50.53,0,0,1-3-5.59l-.12-.27c-.39-.86-.75-1.73-1.08-2.59A50.61,50.61,0,0,1,135,662.1l-.06-.25A50.82,50.82,0,0,1,155.71,608a51,51,0,0,0-8,30.06,49.24,49.24,0,0,0,1.34,9.27l.06.25a3.72,3.72,0,0,0,.11.41c2.59,8.72,12,12.37,21,11.55,17.28-1.56,54.68-21.78,62.63-26.44C233.42,634.47,232.29,633.44,232.72,634.8Z"/><path class="cls-16" d="M196.19,676.05a253.57,253.57,0,0,0,38.67-21.65,50.5,50.5,0,0,1-.92,6.14c-8.11,6-21.08,13.31-36.19,20.22-14.48,6.62-28,11.49-37.7,13.87a51.3,51.3,0,0,1-5.53-3.48A253.49,253.49,0,0,0,196.19,676.05Z"/><path class="cls-16" d="M230.16,628.28l.28.61a52.1,52.1,0,0,1,2.28,5.91c-8.23,6.72-24.5,16.13-43.95,25s-37.21,15-47.67,16.89a50.53,50.53,0,0,1-3-5.59l-.12-.27c9.92-1.14,28-7.1,47.83-16.17C206.43,645.27,223.27,635.06,230.16,628.28Z"/><path class="cls-16" d="M133.48,654.29l.16-3.42c6.92.33,25-5.5,44-14.17,22.62-10.34,37.21-20.23,39.94-24.66l2.91,1.8c-3.61,5.85-20.25,16.29-41.42,26C159.31,648.83,141,654.65,133.48,654.29Z"/><path class="cls-16" d="M135.94,637l-.52-3.38c7.78-1.19,21.25-5.88,35.16-12.25,14.58-6.67,27.19-14,32.9-19.15l2.29,2.54c-6,5.36-18.89,12.92-33.76,19.72C157.83,631,144,635.78,135.94,637Z"/><path class="cls-16" d="M134.9,663.56v-3.42c7.94,0,26.62-6.09,46.47-15.18,20.83-9.53,38.29-20.21,42.47-26l2.77,2c-4.56,6.29-22.17,17.18-43.81,27.08C162.22,657.49,143.42,663.57,134.9,663.56Z"/><path class="cls-16" d="M167.71,698.83l-.07-.85-.4-.76.16-.08.18,0c6.86-.52,19.94-4.81,33.3-10.92s24.91-13,29.93-18l1.2,1.23c-5.15,5-16.81,12-30.41,18.27C187.85,694,174.87,698.28,167.71,698.83Z"/><path d="M184.31,702.88a53,53,0,0,1-31-10l-3.68-2.65L154,689.1a253.35,253.35,0,0,0,41.32-15,253,253,0,0,0,38.34-21.47l3.72-2.59-.39,4.51a52.86,52.86,0,0,1-52.67,48.3ZM159.65,692a48.66,48.66,0,0,0,72.48-33.16A263.72,263.72,0,0,1,197.07,678,265.63,265.63,0,0,1,159.65,692Z"/><path class="cls-17" d="M259.63,623.45c3.09,6.76-7,18.57-24.77,30.95a253.57,253.57,0,0,1-38.67,21.65,253.49,253.49,0,0,1-41.67,15.1c-21,5.38-36.52,5.27-39.61-1.5-2.81-6.14,5.22-16.44,20.05-27.55a52.36,52.36,0,0,0,1.94,6.17c-4.09,3.38-6.11,6.05-5.4,7.61s4.18,1.78,9.6.84c10.46-1.84,28.22-8,47.67-16.89s35.72-18.31,43.95-25c4.25-3.47,6.36-6.22,5.63-7.81s-4-1.77-9.28-.89a50,50,0,0,0-3.4-5.49C243.78,616.65,256.82,617.31,259.63,623.45Z"/><path class="cls-16" d="M136.59,667.44l.32.83c-4.1,3.38-6.12,6.05-5.41,7.61s4.19,1.79,9.6.84c6.93-1.22,17.09-4.34,28.82-8.9a7.53,7.53,0,0,0,0,2.88c-4.52,1.7-8.91,3.21-13.08,4.49-18.1,5.56-27.53,5.48-28.64,3C127.55,676.83,129.43,673.25,136.59,667.44Z"/><path class="cls-18" d="M135.24,665l.44.54a77.87,77.87,0,0,0-8.68,7.67A41,41,0,0,1,135.24,665Z"/><path class="cls-18" d="M136.11,666.06l-.43-.54.2-.16Z"/><path class="cls-16" d="M127,673.19c-1.67,2.45-2.1,4.51-1.32,6.21s2.54,2.58,5,3c6.43,1,17.51-1.63,27-4.54,4.28-1.31,8.79-2.86,13.45-4.61a8.93,8.93,0,0,0,3.95,2.67c-6.88,2.62-13.56,4.85-19.82,6.6-22.3,6.23-32,4.56-33.51,1.23C120.89,681.87,122.11,678.33,127,673.19Z"/><path class="cls-16" d="M195.28,676.47a252.43,252.43,0,0,1-40.76,14.68c-21,5.38-36.52,5.27-39.61-1.5-2.81-6.14,5.22-16.43,20.05-27.55.15.62.32,1.23.5,1.85l-.85-1.11c-8.61,6.59-18.27,15.76-15.39,22,1.11,2.43,3.74,3.74,7.21,4.29,8.19,1.29,21-1.62,29.56-4A239.07,239.07,0,0,0,179.81,677,59.72,59.72,0,0,0,195.28,676.47Z"/><path class="cls-14" d="M171.11,673.22c-4.66,1.75-9.17,3.3-13.45,4.61-9.46,2.91-20.54,5.56-27,4.54-2.47-.39-4.25-1.32-5-3s-.35-3.76,1.32-6.21a77.87,77.87,0,0,1,8.68-7.67l.43.54c.15.46.32.92.48,1.38-7.16,5.81-9,9.39-8.39,10.8,1.11,2.43,10.54,2.51,28.64-3,4.17-1.28,8.56-2.79,13.08-4.49a5.91,5.91,0,0,0,.42,1.27A5.77,5.77,0,0,0,171.11,673.22Z"/><path class="cls-14" d="M135.68,665.52a77.87,77.87,0,0,0-8.68,7.67,41,41,0,0,1,8.24-8.21Z"/><path class="cls-14" d="M136.11,666.06l.86,1.08-.38.3C136.43,667,136.26,666.52,136.11,666.06Z"/><path class="cls-14" d="M222.74,648.06a280.15,280.15,0,0,1-31.66,16.83c-6.76,3.1-13.5,5.91-20,8.33a5.77,5.77,0,0,1-.77-1.25,5.91,5.91,0,0,1-.42-1.27c6.48-2.41,13.23-5.22,20-8.33a276.67,276.67,0,0,0,31.33-16.65c16.05-10.06,22.16-17.26,21.05-19.68-.66-1.45-4.72-2.37-14.14-.62l-.38-2-.13-.68a41.13,41.13,0,0,1,11.64-.88c2.93.35,4.75,1.38,5.53,3.07C247.57,630.87,234.32,640.8,222.74,648.06Z"/><path class="cls-14" d="M179.81,677A239.07,239.07,0,0,1,156,685.15c-8.52,2.39-21.37,5.3-29.56,4-3.47-.55-6.1-1.86-7.21-4.29-2.88-6.27,6.78-15.44,15.39-22l.85,1.11q.19.7.42,1.41l-.2.16-.44-.54a41,41,0,0,0-8.24,8.21c-4.89,5.14-6.11,8.68-5.27,10.53,1.53,3.33,11.21,5,33.51-1.23,6.26-1.75,12.94-4,19.82-6.6A21,21,0,0,0,179.81,677Z"/><path class="cls-14" d="M135.24,665l.44.54a77.87,77.87,0,0,0-8.68,7.67A41,41,0,0,1,135.24,665Z"/><path class="cls-14" d="M135.46,664l.83,1.09-.41.32Q135.65,664.66,135.46,664Z"/><path class="cls-14" d="M229.36,651.59A265.73,265.73,0,0,1,193.88,671c-4.72,2.16-9.43,4.17-14.07,6a21,21,0,0,1-4.75-1.12c5.79-2.21,11.72-4.7,17.67-7.41a260.68,260.68,0,0,0,35.1-19.2c19.3-12.8,24.37-21.22,22.85-24.55-.85-1.84-4.31-3.24-11.38-2.91a77.63,77.63,0,0,0-11.51,1.56l-.77.15-.56-2.71c10.61-2.21,23.87-3.52,26.74,2.75C256.93,631.73,239.87,644.62,229.36,651.59Z"/><path d="M129.31,697.13c-7.62,0-14.07-1.65-16.33-6.59-4.33-9.48,11.12-22.95,20.71-30.13l2.56-1.92.77,3.11a49.79,49.79,0,0,0,1.86,5.9l.55,1.43-1.18,1c-3.51,2.9-4.44,4.45-4.68,5,.62.2,2.46.52,7.16-.3,10.61-1.86,28.68-8.27,47.16-16.73S223,640,231.38,633.16c3.69-3,4.66-4.62,4.91-5.22-.61-.2-2.39-.51-6.87.26l-1.51.25-.72-1.35a49.06,49.06,0,0,0-3.25-5.27l-1.85-2.61,3.13-.69c11.71-2.56,32-5.43,36.34,4h0c4.79,10.47-13.91,25.52-25.49,33.57a256.76,256.76,0,0,1-39,21.84,256.65,256.65,0,0,1-42,15.23C147.83,695.05,137.84,697.13,129.31,697.13Zm4.45-31.44c-14.86,11.64-18.55,19.51-16.92,23.08,1.86,4.07,12.7,6.59,37.15.33a253.35,253.35,0,0,0,41.32-15,253,253,0,0,0,38.34-21.47c20.73-14.41,25.91-24.26,24-28.33h0c-1.63-3.57-10-5.92-28.53-2.28.36.57.7,1.15,1,1.73,5.84-.81,9-.08,10.07,2.33,1.21,2.64-.71,5.83-6.22,10.33-8.74,7.13-25.34,16.6-44.41,25.32s-37.08,15.1-48.19,17c-7,1.22-10.68.59-11.89-2-1.1-2.41.39-5.26,4.83-9.15C134.18,667,134,666.34,133.76,665.69Z"/><g class="cls-13"><path class="cls-8" d="M232.73,635c-1,.79-2,1.6-3.19,2.45-.48-1.33-1-2.66-1.62-4l-.28-.6c-.35-.74-.71-1.47-1.1-2.18a50,50,0,0,0-3.39-5.5c-.14-.21-.3-.42-.45-.62a50.09,50.09,0,0,0-6.24-7A50.8,50.8,0,0,0,139.13,627a50.76,50.76,0,0,1,86.11-6.83l.45.62a51.59,51.59,0,0,1,3.39,5.5c.38.71.74,1.44,1.09,2.18.1.2.2.4.29.61A51.87,51.87,0,0,1,232.73,635Z"/></g><path d="M140.05,679.05l-.76-1.22a53.11,53.11,0,0,1-3.11-5.82c-.45-1-.87-2-1.25-3a53.73,53.73,0,0,1-2-6.42,52.88,52.88,0,0,1,98-37.5c.5.94,1,1.91,1.43,2.9a53,53,0,0,1,2.37,6.15l.43,1.38-1.11.91c-8.74,7.12-25.34,16.59-44.41,25.31s-37.08,15.1-48.19,17Zm44.21-77.69A48.66,48.66,0,0,0,137,661.6a49.79,49.79,0,0,0,1.86,5.9c.36.92.74,1.84,1.16,2.75.64,1.4,1.35,2.78,2.12,4.11,10.75-2.16,28.05-8.37,45.73-16.46s33.69-17.11,42.35-23.84q-.77-2.17-1.72-4.29h0q-.62-1.37-1.32-2.67a48.52,48.52,0,0,0-42.93-25.74Z"/><g class="cls-19"><ellipse class="cls-5" cx="665.91" cy="1308.32" rx="363.78" ry="45.8"/></g></g></g></svg>