<svg xmlns="http://www.w3.org/2000/svg" xmlns:xlink="http://www.w3.org/1999/xlink" viewBox="0 0 1447.8 2475.58"><defs><style>.cls-1{fill:#fff;}.cls-2{opacity:0.29;}.cls-3{fill:#371a45;}.cls-4{fill:url(#Super_Soft_Black_Vignette);}.cls-5{fill:url(#Super_Soft_Black_Vignette-2);}.cls-6{fill:url(#Super_Soft_Black_Vignette-3);}.cls-7{fill:url(#Super_Soft_Black_Vignette-4);}.cls-8{fill:url(#Super_Soft_Black_Vignette-5);}.cls-9{fill:url(#Super_Soft_Black_Vignette-6);}.cls-10{fill:url(#Super_Soft_Black_Vignette-7);}.cls-11{fill:url(#Super_Soft_Black_Vignette-8);}.cls-12{fill:url(#Super_Soft_Black_Vignette-9);}.cls-13{fill:#d8d8d8;}.cls-14{fill:url(#Super_Soft_Black_Vignette-10);}.cls-15{fill:url(#Super_Soft_Black_Vignette-11);}.cls-16{fill:url(#Super_Soft_Black_Vignette-12);}.cls-17{fill:url(#Super_Soft_Black_Vignette-13);}.cls-18{fill:#1d1d1b;}.cls-19{fill:url(#Super_Soft_Black_Vignette-14);}.cls-20{fill:url(#Super_Soft_Black_Vignette-15);}.cls-21{fill:url(#Super_Soft_Black_Vignette-16);}.cls-22{fill:#22a7f0;}.cls-23{fill:#568ea3;}.cls-24{fill:url(#Super_Soft_Black_Vignette-17);}.cls-25{fill:#9dbdca;}.cls-26{opacity:0.7;}.cls-27{fill:url(#Super_Soft_Black_Vignette-18);}.cls-28{fill:url(#Super_Soft_Black_Vignette-19);}.cls-29{fill:#202332;}.cls-30{fill:#101119;}.cls-31{fill:#909199;}.cls-32{fill:url(#Super_Soft_Black_Vignette-20);}.cls-33{fill:#dddcdb;}.cls-34{fill:#edae3e;}.cls-35{fill:#d18c28;}.cls-36{fill:url(#Super_Soft_Black_Vignette-21);}</style><radialGradient id="Super_Soft_Black_Vignette" cx="405.94" cy="1590.6" r="356.48" gradientUnits="userSpaceOnUse"><stop offset="0.57" stop-color="#161412"/><stop offset="0.8" stop-color="#161412"/><stop offset="1" stop-color="#161412"/></radialGradient><radialGradient id="Super_Soft_Black_Vignette-2" cx="262.75" cy="1742.13" r="125.83" xlink:href="#Super_Soft_Black_Vignette"/><radialGradient id="Super_Soft_Black_Vignette-3" cx="288.98" cy="1777.42" r="73.39" xlink:href="#Super_Soft_Black_Vignette"/><radialGradient id="Super_Soft_Black_Vignette-4" cx="544.33" cy="2101.8" r="295.43" xlink:href="#Super_Soft_Black_Vignette"/><radialGradient id="Super_Soft_Black_Vignette-5" cx="910.72" cy="2120.79" r="285.48" xlink:href="#Super_Soft_Black_Vignette"/><radialGradient id="Super_Soft_Black_Vignette-6" cx="895.7" cy="2165.42" r="123.24" xlink:href="#Super_Soft_Black_Vignette"/><radialGradient id="Super_Soft_Black_Vignette-7" cx="541.58" cy="2144.33" r="122.37" xlink:href="#Super_Soft_Black_Vignette"/><radialGradient id="Super_Soft_Black_Vignette-8" cx="493.03" cy="2334.95" r="86.76" xlink:href="#Super_Soft_Black_Vignette"/><radialGradient id="Super_Soft_Black_Vignette-9" cx="978.28" cy="2329.76" r="48.57" xlink:href="#Super_Soft_Black_Vignette"/><radialGradient id="Super_Soft_Black_Vignette-10" cx="1161.74" cy="1570.72" r="163.49" xlink:href="#Super_Soft_Black_Vignette"/><radialGradient id="Super_Soft_Black_Vignette-11" cx="331.07" cy="1182.37" r="327.73" xlink:href="#Super_Soft_Black_Vignette"/><radialGradient id="Super_Soft_Black_Vignette-12" cx="407.24" cy="1649.56" r="158.36" xlink:href="#Super_Soft_Black_Vignette"/><radialGradient id="Super_Soft_Black_Vignette-13" cx="761.23" cy="2021.57" r="82.11" xlink:href="#Super_Soft_Black_Vignette"/><radialGradient id="Super_Soft_Black_Vignette-14" cx="1065.76" cy="1727.58" r="67.49" xlink:href="#Super_Soft_Black_Vignette"/><radialGradient id="Super_Soft_Black_Vignette-15" cx="864.13" cy="1742.11" r="195.72" xlink:href="#Super_Soft_Black_Vignette"/><radialGradient id="Super_Soft_Black_Vignette-16" cx="819.43" cy="1744.48" r="170.01" xlink:href="#Super_Soft_Black_Vignette"/><radialGradient id="Super_Soft_Black_Vignette-17" cx="804.14" cy="1743.09" r="58.68" xlink:href="#Super_Soft_Black_Vignette"/><radialGradient id="Super_Soft_Black_Vignette-18" cx="836.97" cy="1742.77" r="58.59" xlink:href="#Super_Soft_Black_Vignette"/><radialGradient id="Super_Soft_Black_Vignette-19" cx="947.02" cy="1739.91" r="110.91" xlink:href="#Super_Soft_Black_Vignette"/><radialGradient id="Super_Soft_Black_Vignette-20" cx="163.02" cy="952.95" r="182.01" xlink:href="#Super_Soft_Black_Vignette"/><radialGradient id="Super_Soft_Black_Vignette-21" cx="1183.09" cy="1542.25" r="146.32" xlink:href="#Super_Soft_Black_Vignette"/></defs><g id="Camada_2" data-name="Camada 2"><g id="Layer_1" data-name="Layer 1"><path class="cls-1" d="M590,1175.27l5.81,80.74,3,41.13,51.19,709.2s-48.56.75-113.75-3.49c-12.75-.83-26.14-1.83-39.92-3.09-102.73-9.24-227.45-31.44-274.81-84.25-70.79-79-82.6-464.53-19.39-617.41,29-70.08,176.09-100.6,280.58-113.6,11.68-1.48,22.83-2.71,33.22-3.74C559.66,1176.33,590,1175.27,590,1175.27Z"/><g class="cls-2"><path class="cls-3" d="M595.77,1256l3,41.13,40.64,563.12,10.55,146.08-2.94,0c-.55,0-1.2,0-1.89,0h-1.78c-.48,0-1,0-1.42,0-.18,0-.4,0-.58,0-.88,0-1.86,0-2.88,0-.21,0-.43,0-.69,0h-2.65c-1.27,0-2.58,0-4,0-1,0-2,0-3.09,0l-3.31,0c-1.42,0-2.92,0-4.45,0-3.09-.06-6.37-.1-9.84-.19q-4.58-.06-9.62-.23c-3.87-.12-7.92-.21-12.11-.36-15.52-.54-33.29-1.34-52.53-2.6-3.73-.24-7.55-.51-11.4-.77-2.67-.19-5.42-.4-8.18-.62-6.64-.51-13.47-1.07-20.34-1.7-102.77-9.24-227.45-31.44-274.77-84.25-58.32-65-76.65-337.93-46-517.65-5.28,156.28,15.92,323.3,59.88,372.29,21.73,24.23,105.3-64.51,102.75-114.53-6.55-129,10.49-295.55,127.25-396.93C468.43,1256.05,538.12,1263.38,595.77,1256Z"/></g><path class="cls-4" d="M638.54,2022c-62.35,0-347.1-5.08-428.71-96.1-74.54-83.15-88.25-474.1-22.21-633.82,21.17-51.21,96.11-89,222.75-112.39,91.33-16.85,175.51-19.93,179-20.06l15-.52,62.27,862.57-16.53.25C648.88,2022,644.85,2022,638.54,2022Zm-63.07-830.48c-101.6,5.38-326.26,33.36-359,112.49-60.08,145.31-49.53,527.28,16.6,601,70,78.1,331.45,85.16,400.08,85.65Z"/><path class="cls-1" d="M189.12,1624.6l139.65,6.82a27.37,27.37,0,0,1,25.5,21.75c9.31,44.75,25.45,149.23-17.38,185-35.55,29.68-94.58,27.85-129.88-.48-39.48-31.68-45.95-134.39-46.65-185.31A27.41,27.41,0,0,1,189.12,1624.6Z"/><g class="cls-2"><path class="cls-3" d="M354.27,1653.19c9.33,44.73,25.44,149.21-17.39,185-35.56,29.7-94.57,27.86-129.89-.47-24.27-19.51-36.06-65.87-41.7-110.5,6.86,22.19,17.19,40.09,29.77,51.68,72,66.42,122.36-15.42,122.36-15.42s9.62,19.3,16.9,20.22c30.45,3.83,21.69-91,16-139.88A26.58,26.58,0,0,1,354.27,1653.19Z"/></g><path class="cls-5" d="M273,1875.32c-27.18,0-54.61-8.49-75.76-25.46-41.59-33.38-51.51-125.71-52.5-197.28A43,43,0,0,1,189.89,1609l139.64,6.82a43,43,0,0,1,40,34.18c12,57.66,25,160.34-22.67,200.14C326.79,1866.94,300,1875.32,273,1875.32Zm-85.24-235.13a11.78,11.78,0,0,0-11.78,12c1.23,89,16.49,153.82,40.81,173.34,30.65,24.59,81.07,24.9,110.09.67,29.8-24.87,25.79-104,12.1-169.8a11.78,11.78,0,0,0-11-9.34l-139.65-6.82Z"/><path class="cls-6" d="M261.79,1847.38c45.8-28.26,51.64-89.65,49.35-138.92-.52-7.84-1.34-16.12-3.28-23-1.31-4.9,5.89-7.36,7.8-2.56,8.19,23.95,9.39,48.15,9.88,73.09.57,43.1-13.91,91.69-52,116.49-17.9,9.75-30.73-17.57-11.74-25.09Z"/><path class="cls-3" d="M411.84,1289.87c-66.61-1.41-135.89-2.66-200.84,12.84-20,4.91-28-24.25-8.18-30.17,52.89-9.6,105.67-6.58,158.68-3.38,17.26,1.24,34.37,2.71,51.64,4.66a8.06,8.06,0,0,1-1.3,16Z"/><path class="cls-1" d="M715.63,1743.78c-2.94,44.31-8.94,179.45-15.5,316.67-7.91,165.82-16.64,334.69-21.92,349.88-15.86,45.55-57.05,49.52-57.05,49.52H459.7s-49.35-.07-71.06-26.32c-35.65-43.14.6-90.08.6-90.08s-2.73-195.62-4.5-374.67c-.75-77-1.31-150.89-1.42-204.88Z"/><g class="cls-2"><path class="cls-3" d="M715.63,1743.78c-2.94,44.31-8.94,179.45-15.5,316.67-123.78,7.91-224.22-56.12-315.39-91.67-.75-77-1.31-150.89-1.42-204.88Z"/></g><g class="cls-2"><path class="cls-3" d="M683.7,2360.41c-2.05,27.43-3.93,45.41-5.49,49.92-15.86,45.55-57.05,49.52-57.05,49.52H459.7s-49.35-.07-71.06-26.32c-17.81-21.53-17.67-44-13.06-61.13,0,0,0,.07.08.11,23.52,28.42,77,28.49,77,28.49H627.58S664,2397.49,683.7,2360.41Z"/></g><path class="cls-7" d="M621.15,2475.46H459.7c-5.82,0-57.45-1-83.09-32-32-38.73-17.45-83-3.06-104.88-.65-47.16-5.55-408-5.85-574.66a15.63,15.63,0,0,1,15.59-15.65h0a15.62,15.62,0,0,1,15.62,15.59c.31,177.43,5.86,575.37,5.92,579.37a15.61,15.61,0,0,1-3.26,9.77c-1.11,1.47-28,37.79-.91,70.56,13.85,16.76,47.32,20.58,59.05,20.64H620.17c4.24-.65,31.83-6.1,43.28-39,6-21.29,18.26-284,26.38-457.84,4.32-92.57,8.06-172.5,10.2-204.62a15.62,15.62,0,1,1,31.17,2.08c-2.12,31.8-5.85,111.6-10.17,204-14.11,302.07-21.91,448.94-28.07,466.65-18.92,54.4-68.22,59.74-70.31,59.94C622.15,2475.44,621.65,2475.46,621.15,2475.46Z"/><path class="cls-1" d="M1073.2,2359.56c18.88,23.38,21.39,57.19-4.43,81s-123.18,18.91-123.18,18.91H804.78s-41.19-4-57-49.53c-12.27-35.33-5-181.22-9.4-347.78-.92-35.37-2.38-71.67-4.65-108l354.07-172.49c-5.5,65-11.53,128.53-17.64,188.1-20.86,204.49-42,361.34-42,361.34S1057,2339.48,1073.2,2359.56Z"/><g class="cls-2"><path class="cls-3" d="M1068.77,2440.53c-25.85,23.74-123.16,18.9-123.16,18.9H804.8s-41.2-4-57-49.52c-2-5.7-3.48-14.29-4.57-25.42,18,14,36.31,15.74,36.31,15.74H938.7s110,5.47,139.25-21.4a58.52,58.52,0,0,0,4.37-4.41C1092,2395.86,1089.5,2421.43,1068.77,2440.53Z"/></g><g class="cls-2"><path class="cls-3" d="M1087.75,1781.6c-5.5,65-11.53,128.53-17.64,188.1a577.47,577.47,0,0,0-80,35c-102.92,54.24-212.26,58.11-251.78,57.47-.92-35.37-2.38-71.67-4.65-108Z"/></g><path class="cls-8" d="M968.09,2475.58c-10.36,0-18.55-.31-22.87-.52H804.79c-.5,0-1,0-1.5-.08-2.09-.2-51.38-5.54-70.31-59.93-8.57-24.66-8.58-86.39-8.6-179.81,0-80.36,0-180.37-6.28-280.16a15.62,15.62,0,1,1,31.17-1.95c6.32,100.76,6.34,201.31,6.35,282.11,0,80.41,0,149.86,6.87,169.54,11.39,32.74,38.71,38.32,43.32,39H946.38c37.73,1.87,97.32-1.49,111.8-14.81,20.22-18.59,16-43.36,2.87-59.66-12.81-15.89-37.14-23.26-37.38-23.34A15.66,15.66,0,0,1,1012.6,2329c.35-2.62,35.52-264.43,59.59-548.66a15.62,15.62,0,0,1,31.13,2.64c-21.18,250-50.91,482.72-58.14,537.9,11.53,5.05,28.42,14.33,40.19,28.93,25.94,32.18,23.4,75.18-6,102.25C1057.23,2472.34,1001.42,2475.58,968.09,2475.58Z"/><path class="cls-9" d="M875.92,2196.65c-75,0-134.92-12.19-139.26-13.1A15.62,15.62,0,0,1,743,2153c1.78.37,180,36.52,302.2-17.43a15.62,15.62,0,1,1,12.62,28.57C1000.63,2189.39,933.78,2196.65,875.92,2196.65Z"/><path class="cls-10" d="M555.79,2172.16c-104.36,0-170.94-24-174.8-25.38a15.62,15.62,0,0,1,10.81-29.31h0c1.25.46,127,45.35,301.79,9.14a15.62,15.62,0,0,1,6.34,30.59A710.69,710.69,0,0,1,555.79,2172.16Z"/><path class="cls-11" d="M379.22,2331.49c50.68-37.08,166.87-16.17,227.39-8.79,9.74,1.54,8.26,16.11-1.69,15.53-18.3-1.33-36.58-2.47-54.82-3.21-40.08-1.35-81.19-2.24-120.13,6.58-10.88,2.68-23.75,7.48-31.27,14.33-16.54,13.3-36.18-11.2-19.48-24.44Z"/><path class="cls-12" d="M1024.42,2346.22c-33-10.37-69.72-12.33-104.64-11.33-9.6.26-11.07-13.79-1.64-15.53,37.57-6.4,75.16-9.72,113.6-3.51,21.8,4.46,14.16,36.34-7.32,30.37Z"/><path class="cls-13" d="M1030.87,1690.49s154.4,84,220.69,18.9c102.27-100.36-19.69-301.93-19.69-301.93Z"/><path class="cls-14" d="M1180.69,1749.6c-72.64,0-152.55-42.81-157.28-45.38a15.63,15.63,0,0,1-5.27-22.77l201-283a15.83,15.83,0,0,1,13.31-6.56,15.61,15.61,0,0,1,12.79,7.52c5.24,8.66,127.1,213.39,17.27,321.17C1240.64,1742,1211.31,1749.6,1180.69,1749.6Zm-126.55-64.89c48.8,22.94,144.19,55,186.48,13.54,73.79-72.42,16.07-208.73-10.54-261.3Z"/><path class="cls-1" d="M612.15,1329.44c-26.12,38.74-62.32,81.07-90.87,112.62-25.92,28.62-45.53,48.38-45.53,48.38s-341,23.86-434.85-227.34a391,391,0,0,1-21.44-87.63C-1,1016.23,72.69,873.66,72.69,873.66l184.19,86.81L310,1137.12s39.52,18.9,108,41.08a1449.56,1449.56,0,0,0,206.14,50.34C663,1235.06,646.05,1279.18,612.15,1329.44Z"/><g class="cls-2"><path class="cls-3" d="M521.28,1442.06c-25.92,28.62-45.53,48.38-45.53,48.38s-341,23.86-434.85-227.34a391,391,0,0,1-21.44-87.63c18,49.71,109.42,251.12,412.09,259.6C468,1436.08,497.54,1438.54,521.28,1442.06Z"/></g><g class="cls-2"><path class="cls-3" d="M612.15,1329.44c-82.28-30-150.61-83.6-194.11-151.24a1449.56,1449.56,0,0,0,206.14,50.34C663,1235.06,646.05,1279.18,612.15,1329.44Z"/></g><path class="cls-13" d="M992.68,1292.34c-64.62,40.07-143.5,63.62-228.59,63.62-102,0-195-33.86-265.38-89.51l109.81-174.27L991,1289.42C991.55,1290.39,992.14,1291.37,992.68,1292.34Z"/><path class="cls-15" d="M451.6,1506.72c-33,0-94.45-2.9-162-20.63-132-34.63-223.06-109.85-263.29-217.51-72.73-194.66,28.22-393.73,32.55-402.11a15.62,15.62,0,1,1,27.75,14.35c-1.24,2.42-98.74,195.6-31,376.82,82.1,219.75,369.11,219,413.41,217.49,85.71-87.05,170.8-197,161.37-226.33-.35-1.07-1.15-3.58-8.72-4.86-189.79-32-313.16-90.27-318.31-92.73a15.64,15.64,0,0,1-8.23-9.6L241.91,965a15.62,15.62,0,1,1,29.91-9l51.11,169.85c27.2,12.06,142,60.05,303.85,87.31,22.89,3.85,30.67,18,33.27,26.1,6.06,18.88,4.31,55.93-80.6,159.42C534.84,1453,487.31,1501,486.83,1501.47a15.64,15.64,0,0,1-10,4.57C475.72,1506.12,466.61,1506.72,451.6,1506.72Z"/><path class="cls-1" d="M1105.22,1732c-4,72.71-23.66,138.58-66.58,186.26-149.44,166-549.65,133.59-629.93-75.83-13.16-34.29-18-81.18-17.07-133.78,2.3-129.8,39.87-294.47,74.82-391l142.06-225.47L991,1289.42C1052.31,1395.75,1113.58,1578.93,1105.22,1732Z"/><g class="cls-2"><path class="cls-3" d="M992.68,1292.34c-64.62,40.07-143.5,63.62-228.59,63.62-102,0-195-33.86-265.38-89.51l109.81-174.27L991,1289.42C991.55,1290.39,992.14,1291.37,992.68,1292.34Z"/></g><g class="cls-2"><path class="cls-3" d="M1105.22,1732c-4,72.71-23.66,138.58-66.58,186.26-149.44,166-549.65,133.59-629.93-75.83-13.16-34.29-18-81.18-17.07-133.78C534,1734.34,880.26,1786.31,1105.22,1732Z"/></g><path class="cls-16" d="M411.51,1867.65c-69.14-111.77-24.79-315.2,12.45-434.45,3-8.93,16.72-5.85,15.16,3.75-12.31,71.08-22.69,142.61-27.81,214.36-3.54,53.18-7.41,106.31.65,158.88a220.48,220.48,0,0,0,13.47,50.42c3.26,8.65-8.88,14.84-13.92,7Z"/><path class="cls-17" d="M871.25,2018.48c-68.31,28.25-150.1,27.5-219.6,3.68-8.3-3.08-5.85-15.6,3-15.33,51.61,2,108.27,2.8,159.51-.51,17.69-1,35.39-2.28,53.56-3,8.66-.39,11.46,11.76,3.55,15.2Z"/><path class="cls-18" d="M1004.55,1281.61c87.64,150.51,159.67,404,90.43,571.46-11.78,26.56-28.49,51.53-50.52,70.44a7.87,7.87,0,0,1-11.61-10.45c90.92-138.8,56.34-317.84,8.82-466.46-17.29-51.59-38.34-102.11-64.24-149.49-9.21-17.82,16.11-32.72,27.12-15.5Z"/><circle class="cls-1" cx="1065.76" cy="1727.58" r="51.87"/><path class="cls-19" d="M1065.76,1795.07a67.49,67.49,0,1,1,67.49-67.49A67.56,67.56,0,0,1,1065.76,1795.07Zm0-103.74a36.25,36.25,0,1,0,36.25,36.25A36.29,36.29,0,0,0,1065.76,1691.33Z"/><path class="cls-1" d="M1013.38,1880l-292.73,6a63.23,63.23,0,0,1-64.33-61.74l-3.19-155.78a63.28,63.28,0,0,1,49.18-62.79,61.06,61.06,0,0,1,12.57-1.53l292.69-6a63.17,63.17,0,0,1,64.32,61.75l2.56,123.38.68,32.4A63.23,63.23,0,0,1,1013.38,1880Z"/><path class="cls-1" d="M1013.38,1880l-292.73,6a63.23,63.23,0,0,1-64.33-61.74l-3.19-155.78a63.28,63.28,0,0,1,49.18-62.79,61.06,61.06,0,0,1,12.57-1.53l292.69-6a63.17,63.17,0,0,1,64.32,61.75l2.56,123.38.68,32.4A63.23,63.23,0,0,1,1013.38,1880Z"/><path class="cls-1" d="M1013.38,1880l-292.73,6a63.23,63.23,0,0,1-64.33-61.74l-3.19-155.78a63.28,63.28,0,0,1,49.18-62.79,61.06,61.06,0,0,1,12.57-1.53l292.69-6a63.17,63.17,0,0,1,64.32,61.75l2.56,123.38.68,32.4A63.23,63.23,0,0,1,1013.38,1880Z"/><g class="cls-2"><path class="cls-3" d="M1013.82,1880.05l-292.74,6a63.24,63.24,0,0,1-64.33-61.75l-3.18-155.77a63.25,63.25,0,0,1,49.17-62.79c16.85,10.69,27.55,17.54,27.55,17.54C747.11,1748,784,1809.66,939.33,1809c67-.3,109.14-11.39,135.55-25.69l.68,32.4A63.25,63.25,0,0,1,1013.82,1880.05Z"/></g><path class="cls-20" d="M732.36,1901.42a92.06,92.06,0,0,1-91.91-90.07l-2.66-129.22a92.06,92.06,0,0,1,90.05-93.83L994,1582.83a92.17,92.17,0,0,1,93.82,90.05l2.66,129.22a92.07,92.07,0,0,1-90.05,93.83l-266.14,5.47C733.64,1901.42,733,1901.42,732.36,1901.42Zm1.59-15.63h0Zm261.93-271.74h-1.26l-266.14,5.47a61,61,0,0,0-59.46,62l2.66,129.22a60.79,60.79,0,0,0,62,59.46l266.14-5.47a60.79,60.79,0,0,0,59.46-62l-2.66-129.23a60.94,60.94,0,0,0-60.69-59.47Z"/><path class="cls-1" d="M909.82,1881.08l-.56,1.12-188.63,3.86a63.18,63.18,0,0,1-58.09-35.88,61.52,61.52,0,0,1-6.18-25.86l-1.45-69.21-.48-22.84-.79-40.1-.5-23.63a63.24,63.24,0,0,1,61.73-64.34l63.25-1.27a63.21,63.21,0,0,0-50.1,62.9l.93,46.25.8,37.91,1.45,71.7a63.32,63.32,0,0,0,64.33,61.73Z"/><g class="cls-2"><path class="cls-3" d="M939.7,1880.45l-.56,1.12-218.51,4.49a63.18,63.18,0,0,1-58.09-35.88,61.52,61.52,0,0,1-6.18-25.86l-1.45-69.21-.48-22.84-.79-40.1c12.64-2,29.5-.61,39,17.95,13.22,25.71,26.48,16.78,36.27,2l.8,37.91,1.45,71.7a63.32,63.32,0,0,0,64.33,61.73Z"/></g><path class="cls-21" d="M719.29,1901.69a78.83,78.83,0,0,1-78.56-77l-3.2-155.8a78.85,78.85,0,0,1,77-80.28l63.24-1.28,3.54,30.9a47.47,47.47,0,0,0-37.69,47.36l3.2,155.79a47.59,47.59,0,0,0,48.36,46.45L985.38,1865l15.67-.33.3,15.71c.16,11.37-7.69,14.58-15.41,15.53v.32l-265,5.44C720.41,1901.69,719.85,1901.69,719.29,1901.69Zm7.29-282.13-11.38.23a47.64,47.64,0,0,0-46.44,48.4L672,1824a47.59,47.59,0,0,0,48.36,46.43l13.12-.27a77.88,77.88,0,0,1-17.83-48.2l-3.2-155.79A78.4,78.4,0,0,1,726.58,1619.56Z"/><path class="cls-22" d="M845.07,1742.65c.09,5.76-7.33,52.39-7.33,52.39l-32.82.48c-22.6.34-41.27-22.79-41.7-51.66s17.55-52.54,40.15-52.88l32.83-.48S844.93,1733.26,845.07,1742.65Z"/><path class="cls-23" d="M845.07,1742.65c.09,5.76-7.33,52.39-7.33,52.39l-32.82.48c-22.6.34-41.27-22.79-41.7-51.66s17.55-52.54,40.15-52.88l32.83-.48S844.93,1733.26,845.07,1742.65Z"/><path class="cls-24" d="M804.42,1807.24c-14.36,0-27.75-6.81-37.78-19.24-9.51-11.79-14.89-27.4-15.13-44s4.66-32.34,13.82-44.4c9.81-12.92,23.26-20.16,37.87-20.37l22.91-.34h.35A23.57,23.57,0,0,1,849.63,1698c4.67,23.82,7.07,38.78,7.16,44.47h0c0,1.69.08,5.64-5.92,44.44a23.53,23.53,0,0,1-23,20l-22.81.34Zm22.22-104.74-23.09.2c-7.26.1-14.2,4-19.56,11.11-6,7.91-9.22,18.52-9,29.87s3.69,21.87,9.93,29.61c5.57,6.89,12.7,10.61,19.87,10.52l22.81-.34c4.22-26.39,5.74-38.39,5.81-40.72C833.28,1739.49,831.48,1727.25,826.64,1702.5Z"/><ellipse class="cls-25" cx="836.97" cy="1742.77" rx="40.93" ry="52.28" transform="translate(-25.7 12.58) rotate(-0.85)"/><g class="cls-26"><path class="cls-1" d="M796.05,1743.39q.06,3.25.4,6.37c4-23,19.89-40.24,39.17-40.54,20.93-.31,38.44,19.47,41.3,45.29a64,64,0,0,0,1-12.35c-.43-28.88-19.09-52-41.7-51.66S795.63,1714.51,796.05,1743.39Z"/></g><path class="cls-23" d="M796.05,1743.39c.43,28.84,19.09,52,41.7,51.66s40.57-24,40.15-52.89a64.68,64.68,0,0,0-1.51-13.16c-5.68,19.56-20.31,33.54-37.64,33.79-19,.3-35.29-16-40.2-38.47A66.55,66.55,0,0,0,796.05,1743.39Z"/><path class="cls-27" d="M837.27,1806.76c-28.73,0-52.42-28.19-52.94-63.21-.52-35.28,22.67-64.33,51.69-64.77h.65c28.74,0,52.42,28.19,52.94,63.2h0c.52,35.28-22.67,64.33-51.69,64.76Zm-.6-104.56h-.3c-15.83.23-28.93,19-28.61,41s13.81,40.13,29.52,40.13h.29c15.83-.24,28.94-19,28.61-41h0C865.86,1720.49,852.37,1702.2,836.67,1702.2Z"/><path class="cls-28" d="M922.36,1892.49h0a11.7,11.7,0,0,1-11.67-11.75l.24-78.83a66,66,0,0,1,29.81-55.1A42.5,42.5,0,0,0,960,1710.37l-1.89-111.12a11.71,11.71,0,1,1,23.42-.4l1.9,111.12a65.87,65.87,0,0,1-29.8,56.42A42.61,42.61,0,0,0,934.32,1802l-.25,78.84A11.71,11.71,0,0,1,922.36,1892.49Z"/><path class="cls-1" d="M404.82,1672.5s-39.07,12.38-44,46.76c-7,48.14,35,70.17,35,70.17s170.45,45.39,260.35,5.62c0,0,58.36-47.76-3-101.53C653.12,1693.52,520.62,1706.53,404.82,1672.5Z"/><g class="cls-2"><path class="cls-3" d="M656.16,1795.06c-89.89,39.75-260.34-5.62-260.34-5.62s-42-22-35-70.17a48.07,48.07,0,0,1,7-18.86,68.17,68.17,0,0,0,15.59,26.95,59.3,59.3,0,0,0,30.21,17.22c38.19,8.84,154.43,32.17,231,8.71a58.17,58.17,0,0,0,33.09-26l.22-.38C692.16,1765.62,656.16,1795.06,656.16,1795.06Z"/></g><path class="cls-18" d="M558.19,1827c-80.64,0-161.49-21.17-166.4-22.48l-1.69-.45-1.55-.81c-2.11-1.11-51.65-27.83-43.22-86.23,6.29-43.57,52.79-58.79,54.77-59.42l4.54-1.44,4.58,1.35C520.63,1690.26,650.3,1678.1,651.6,1678l6.72-.66,5.09,4.45c22.56,19.76,33.81,41.5,33.42,64.62-.6,35.64-29.55,59.74-30.78,60.75l-1.64,1.34-1.94.85C632.79,1822.47,595.51,1827,558.19,1827Zm-156.43-52.17c18.63,4.69,166.45,40.16,245.87,6.89,4.38-4.17,17.77-18.36,18-36,.13-12-5.93-24.07-18-36-29,2.19-140,8-242-20.68-8.27,3.68-26.66,13.86-29.35,32.51C371.56,1754,395.78,1771.12,401.76,1774.83Z"/><path class="cls-1" d="M1431.6,727.12c-2.84,67.4-15.95,132.25-46,157.27-21.62,18-183.53,35.29-183.53,35.29l81.18-431.3s11,1.9,26.56,5.45c32.38,7.42,84.6,22.2,98.41,42.66C1423.17,558.7,1435,644.82,1431.6,727.12Z"/><g class="cls-2"><path class="cls-3" d="M1431.6,727.12c-2.84,67.4-15.95,132.25-46,157.27-21.62,18-183.53,35.29-183.53,35.29l81.18-431.3s11,1.9,26.56,5.45a745.45,745.45,0,0,1,49,215.07C1363.45,771.39,1406.65,771.16,1431.6,727.12Z"/></g><path class="cls-18" d="M1182.79,937.47l87.91-467.06,15.13,2.58c18.55,3.16,112.25,20.65,135.29,54.77,18.15,26.88,27.27,111.32,26.65,177.14-.53,55.73-8,154.72-52.23,191.48-23.42,19.48-152.77,34.66-191.85,38.85Zm112.88-430.83L1221.29,901.8c69.38-8.26,143.14-21,154.31-29.47,59-49.09,43.61-291.57,19.63-327.09C1385.06,530.18,1335.2,514.82,1295.67,506.64Z"/><circle class="cls-1" cx="797.08" cy="694.88" r="583.76"/><path class="cls-13" d="M248.22,894c85.52,236.13,318.12,398.59,581.73,383.71,321.89-18.17,568.12-293.86,550-615.74a580.91,580.91,0,0,0-126.46-331.21C1220.1,623.9,864.21,870.14,416.91,895.39A1295,1295,0,0,1,248.22,894Z"/><path class="cls-3" d="M796.31,1294.29c-147.36,0-287.72-53.42-398.5-152.36C278.4,1035.28,207.67,888.51,198.65,728.66S243.39,415,350,295.61,603.45,105.48,763.3,96.45s313.64,44.74,433.05,151.39,190.14,253.42,199.16,413.27-44.74,313.64-151.39,433S990.7,1284.29,830.86,1293.32C819.32,1294,807.78,1294.29,796.31,1294.29Zm1.13-1167.56c-10.75,0-21.52.3-32.38.91C452.28,145.3,212.18,414.12,229.84,726.9,246.88,1028.82,498,1263,796.72,1263c10.75,0,21.51-.3,32.38-.91,312.77-17.66,552.88-286.48,535.22-599.26C1347.28,361,1096.16,126.73,797.44,126.73Z"/><path class="cls-18" d="M796.7,1294.3c-315.19,0-580.09-247.08-598.07-565.63h0C180,398.69,433.31,115.07,763.29,96.45a599.4,599.4,0,0,1,632.23,564.66c.18,3.21.32,6.46.45,9.67A600.85,600.85,0,0,1,1387,801.39c-34.24,190.64-159.58,353.73-335.28,436.26a596.21,596.21,0,0,1-220.9,55.69Q813.7,1294.3,796.7,1294.3ZM229.82,726.91c8.55,151.51,75.6,290.62,188.79,391.72s259,152.1,410.48,143.52a565.55,565.55,0,0,0,209.39-52.77c166.55-78.24,285.36-232.82,317.82-413.52a569.88,569.88,0,0,0,8.46-123.8c-.13-3-.26-6.14-.43-9.19A568.18,568.18,0,0,0,765.06,127.64C452.29,145.29,212.2,414.15,229.82,726.91Z"/><path class="cls-18" d="M846.12,1271.28c-315.91,0-580.13-231.27-597-530.37-8.51-150.65,46.25-295.77,154.17-408.62C510.92,219.72,658.64,152.74,819.21,143.68c124.51-7,245.91,21.49,351.14,82.46a14.63,14.63,0,0,1,2,1.34,600.36,600.36,0,0,1,223.22,433.63c.17,3,.3,6.15.43,9.2.19,1.91.3,3.79.41,5.71a481.55,481.55,0,0,1-9.4,125.81c-34.16,190.2-159.5,353.29-335.2,435.82a14.69,14.69,0,0,1-1.7.68,642.11,642.11,0,0,1-167.26,31.91Q864.35,1271.28,846.12,1271.28Zm10-1097.41q-17.55,0-35.2,1c-152.64,8.62-293,72.19-395.11,179C324,460.41,272.29,597.23,280.3,739.15h0C296.24,1021.64,546.67,1240,846.13,1240c11.58,0,23.19-.33,34.91-1A610.73,610.73,0,0,0,1039.3,1209c166.12-78.36,284.6-232.73,317-413.13a450.79,450.79,0,0,0,8.88-118c-.1-1.7-.18-3.25-.35-4.83,0-.33-.06-.67-.07-1-.13-3.05-.26-6.15-.43-9.2a569.09,569.09,0,0,0-210.66-410.29C1063.9,200.81,961.73,173.87,856.17,173.87Z"/><path class="cls-29" d="M321.23,736.84c15.43,273.3,265.13,481.52,557.71,465,248-14,447.23-185,492.73-403.22a464.23,464.23,0,0,0,9.1-121.59c-.1-1.88-.21-3.72-.4-5.6-18.46-270.55-266.75-475.75-557.3-459.35C530.5,228.59,305.8,463.54,321.23,736.84Z"/><path class="cls-30" d="M321.23,736.84c15.43,273.3,265.13,481.52,557.71,465,220-12.42,401.68-148.4,471.59-331.38-98.68,117-248.31,195.81-419.41,205.47-303,17.1-563.56-188.65-599.69-465.77A463.34,463.34,0,0,0,321.23,736.84Z"/><path class="cls-31" d="M608.42,422.5s255-76.39,445.07,14.19l.6.29a247.94,247.94,0,0,1,98.56,85c32.55,48.22,47.79,86.19,59.9,120.13,36.78,103.24,34.4,158.5,34.4,158.5,40.21-75.48,51.75-149.19,22-235.49q-4.44-12.75-10.07-25.93c-.86-2-1.75-4-2.68-6,0,0,0-.07-.07-.11a607,607,0,0,0-37.58-63.35c-48.9-72.08-131.5-159.5-249.65-172.06C748,274.2,595.94,414.75,608.42,422.5Z"/><ellipse class="cls-31" cx="510.65" cy="719.92" rx="79.97" ry="91.86" transform="translate(-48.11 36.66) rotate(-3.93)"/><ellipse class="cls-31" cx="523.49" cy="907.6" rx="37.94" ry="33.01" transform="translate(-396.67 1408.69) rotate(-88.6)"/><path class="cls-1" d="M185.6,649.17,225.37,875.7l24.77,141.11,79.85-.71,7.54-.08c34.44-6.77,46.63-101.84,27.25-212.16-.42-2.49-.9-5-1.38-7.51-20-106.57-62.4-186.5-96-179.84l-7.06,2.81Z"/><g class="cls-2"><path class="cls-3" d="M225.37,875.7l24.77,141.11,79.85-.71,7.54-.08c34.44-6.77,46.63-101.84,27.25-212.16-.42-2.49-.9-5-1.38-7.51l-6-12.84s-5.49,48.51-27.45,57.27c-23.22,9.32-44.4-46.7-44.4-46.7Z"/></g><path class="cls-18" d="M250.14,1032.45a15.61,15.61,0,0,1-15.38-12.92L170.21,651.88a15.61,15.61,0,0,1,9.59-17.2L261.57,602a14.71,14.71,0,0,1,2.77-.82c7.32-1.45,18.82-1.27,32.12,7.84,34.5,23.63,67.35,99.06,83.7,192.17,18.75,106.77,11.17,220.13-39.59,230.19a16.67,16.67,0,0,1-2.9.29l-87.39.79ZM203.17,659l60.07,342.11,72.24-.65c15.87-5.84,34.47-76.76,13.91-193.86-16.18-92.12-47.76-156.16-70.59-171.8-1.74-1.2-4.86-3-7.45-3Z"/><path class="cls-1" d="M156.44,817.84a.21.21,0,0,1,.06.12c1.07,8.69,2.42,17.48,4,26.45,17.81,101.48,57.93,178.72,89.64,172.4,30.75-6.1,42.3-88.78,26.54-186.7-.44-2.79-.94-5.64-1.44-8.48-17.81-101.49-58-178.72-89.64-172.46C156.71,654.92,144.84,728,156.44,817.84Z"/><path class="cls-13" d="M156.5,818c1.07,8.69,2.42,17.48,4,26.45,17.81,101.48,57.93,178.72,89.64,172.4,30.75-6.1,42.3-88.78,26.54-186.7-9.46,37.53-30.73,104.26-60.29,89.33C199.13,910.66,174.63,860.32,156.5,818Z"/><path class="cls-18" d="M246.53,1032.79c-6.51,0-14.76-1.81-23.88-8-32-21.94-62.46-91.67-77.55-177.65-16.82-95.78-12.28-203.36,37.44-213.21,7-1.38,17.92-1.22,30.52,7.41,32,21.93,62.45,91.66,77.55,177.65,16.82,95.78,12.27,203.35-37.45,213.21A34.19,34.19,0,0,1,246.53,1032.79Zm-70.67-191.1c14.83,84.42,43.64,143,64.44,157.27,2.8,1.92,5.28,2.87,6.79,2.54,12.67-2.51,32.3-65.82,12.75-177.16-14.82-84.43-43.64-143-64.44-157.28-2.79-1.91-5.28-2.85-6.79-2.54-12.67,2.51-32.29,65.83-12.75,177.17Z"/><path class="cls-1" d="M16.22,1137.11C15.6,1028,32.43,949.68,72.68,873.65c44.74-84.48,199.59-136.48,230.93-83.5,21.82,36.87-18.05,59.43-31.29,65.67a3.87,3.87,0,0,0-1.67,5.55c8,13,33.26,58.36,33.89,109.91.6,48.91-11.47,93.37-71.39,113.49"/><path class="cls-32" d="M.6,1137.2C-.1,1056,9.89,972.49,43.73,897.56c6.22-13.65,12.19-26.42,19.93-39.51,21.68-34.31,55-59.76,90.57-77.94,36.17-17.75,76.6-31.13,117.68-25.53,32.47,4,59.18,32.32,52.53,66.77-5,22.87-24.55,38.07-43.5,47.64l-1.82.89c4.15-1.74,7.61-7.72,6.38-12.77a11.28,11.28,0,0,0-1.44-3.79l.13.21,1,1.62c32.26,53.47,48.34,122.22,22.35,181.64-8.91,19.15-24.81,35.76-43.61,45-9.1,4.88-18.73,7.92-28.28,10.41a7.82,7.82,0,0,1-5-14.8c24.11-10.95,43.2-26.85,51.78-51.15,15.69-52.05,1.86-110.12-25-156.41-6.71-10.22-1.67-24.54,9.62-28.82,13-6.8,29.73-17.94,26.81-33.65-3-13.22-12.95-19.85-27-21.93-56.54-5.89-122.91,28.26-161.39,69-15,16.1-24.16,35.91-33.19,55.8-16.57,37.2-27.45,76.7-33.51,117.15-5.32,36.05-7.09,72.81-6.94,109.71-.41,20.44-30.53,20.92-31.24.12Z"/><path class="cls-1" d="M310,1137.11s17.15,64.75,17.15,102.65"/><path class="cls-18" d="M325.11,1133.11c4.71,26.47,8.37,52.64,9.84,79.47a239.22,239.22,0,0,1,0,27.18,7.83,7.83,0,0,1-15.62,0c-3.5-33.18-14-66.88-24.45-98.68-6.4-21.28,25.25-29.68,30.21-8Z"/><path class="cls-33" d="M1129.73,1138.94c-46.47,0-90.25,37.68-97.75,84.15s24.09,84.19,70.56,84.19,90.29-37.68,97.78-84.19S1176.23,1138.94,1129.73,1138.94Zm20.13,76c-3.47,21.56-26,41.22-47.32,41.22-5,0-11.86-1.09-16.28-6.3-3.72-4.36-5.08-11-3.82-18.64,3.47-21.56,26-41.19,47.29-41.19,5,0,11.89,1.09,16.32,6.27C1149.73,1200.67,1151.09,1207.28,1149.86,1215Z"/><g class="cls-26"><path class="cls-1" d="M1129.75,1138.92c-46.51,0-90.29,37.68-97.78,84.19a19.06,19.06,0,0,0-.28,2.11c15.66-35.26,52.33-61.11,90.79-61.11,45.81,0,77.13,36.55,70.88,82a90.74,90.74,0,0,0,7-23C1207.8,1176.6,1176.25,1138.92,1129.75,1138.92Z"/></g><path class="cls-18" d="M1102.54,1322.9c-26.93,0-50.76-10.58-67.11-29.78-16.58-19.49-23.29-45.24-18.87-72.52,8.65-53.64,59.42-97.28,113.17-97.28,26.94,0,50.77,10.57,67.11,29.75,16.59,19.48,23.3,45.23,18.9,72.51C1207.09,1279.24,1156.31,1322.9,1102.54,1322.9Zm27.19-168.34c-39.08,0-76,31.86-82.33,71-2.93,18.1,1.27,34.9,11.82,47.3,10.31,12.11,25.7,18.78,43.32,18.78,39.1,0,76-31.87,82.36-71.05,2.92-18.1-1.29-34.89-11.84-47.28C1162.75,1161.22,1147.36,1154.56,1129.73,1154.56Zm-27.19,117.23c-11.7,0-21.71-4.19-28.19-11.8-6.73-7.91-9.34-19-7.32-31.29,4.65-28.89,34-54.28,62.7-54.28,11.7,0,21.71,4.17,28.19,11.73,6.73,8,9.32,19,7.37,31.26,0,0,0,0,0,0C1160.62,1246.39,1131.3,1271.79,1102.54,1271.79Zm27.19-66.13c-13.55,0-29.63,14.16-31.87,28.06-.63,3.82.08,5.73.3,6,.18.15,1.51.79,4.38.79,13.55,0,29.65-14.16,31.9-28.07h0c.61-3.85-.11-5.8-.34-6.11A10.15,10.15,0,0,0,1129.73,1205.66Zm20.13,9.29h0Z"/><polygon class="cls-34" points="1316.48 1223.11 1226.59 1497.27 1146.11 1742.85 704.5 1742.85 754.33 1590.84 874.87 1223.11 1316.48 1223.11"/><path class="cls-35" d="M1226.59,1497.27l-80.48,245.58H704.5l49.83-152S793,1679.59,917.48,1696c67.63,8.91,128.74-40.88,134-108.9,2.38-30.46,12-64.44,36.24-96.07C1123.19,1444.91,1183.32,1469.47,1226.59,1497.27Z"/><path class="cls-18" d="M1146.12,1758.46H704.52A15.63,15.63,0,0,1,689.67,1738L860,1218.24a15.63,15.63,0,0,1,14.85-10.76h441.6a15.63,15.63,0,0,1,14.84,20.49L1161,1747.7A15.62,15.62,0,0,1,1146.12,1758.46Zm-420-31.24H1134.8l160.12-488.5H886.19Z"/><polygon class="cls-33" points="1224.2 1291.89 961.47 1291.89 982.95 1223.1 1245.67 1223.1 1224.2 1291.89"/><g class="cls-26"><path class="cls-1" d="M1233,1263.76l-8.78,28.12H961.48L983,1223.11h28.86l-4.89,15.64a19.27,19.27,0,0,0,18.4,25Z"/></g><path class="cls-18" d="M1224.2,1307.52H961.47a15.63,15.63,0,0,1-14.91-20.28L968,1218.45a15.62,15.62,0,0,1,14.91-11h262.72a15.62,15.62,0,0,1,14.91,20.28l-21.47,68.79A15.63,15.63,0,0,1,1224.2,1307.52Zm-241.49-31.24h230l11.72-37.56h-230Z"/><path class="cls-1" d="M1291.25,1497.94c-6.21,38-13,69.62-20.46,95.55a.63.63,0,0,1,0,.16c-19.52,68.22-43.38,97-71.93,97-141-.15-143.42-122.14-105.43-191.73,41.59-76.18,148.08-46.74,148.08-46.74l19.09-58.3S1304.14,1419.1,1291.25,1497.94Z"/><g class="cls-2"><path class="cls-3" d="M1270.75,1593.65c-19.52,68.22-43.38,97-71.93,97-141-.15-143.42-122.14-105.43-191.73,0,0-21.63,109.93,61.07,136C1242.64,1662.61,1269.42,1597,1270.75,1593.65Z"/></g><path class="cls-36" d="M1198.89,1706.26h-.07c-74.29-.08-108.83-32.07-124.73-58.89-28.6-48.27-17.8-113.1,5.59-155.93,37.58-68.82,118.08-63.16,151.3-57.46l14.74-45a15.62,15.62,0,0,1,22.67-8.66c2.16,1.25,52.74,31.65,38.27,120.14h0C1283.38,1642.78,1250.14,1706.26,1198.89,1706.26ZM1194.53,1462c-29.8,0-67.59,8.11-87.43,44.44-18.53,33.93-28.36,87.53-6.14,125,17.11,28.87,50,43.53,97.89,43.58h0c21.71,0,52.67-31.17,76.95-179.59h0c5.82-35.56-1-58.12-8.68-71.52L1256.3,1457a15.61,15.61,0,0,1-19,10.19A176.83,176.83,0,0,0,1194.53,1462Z"/><path class="cls-18" d="M180.27,1437.1a11.72,11.72,0,0,1-3.92-22.76C316.92,1364.48,303,1158.47,302.82,1156.4a11.71,11.71,0,0,1,23.36-1.79c.71,9.2,15.52,225.94-142,281.81A11.72,11.72,0,0,1,180.27,1437.1Z"/><path class="cls-1" d="M141.6,343.7c-24.59-8.65-67.14-39.9-67.14-77.12,0-25.27,15.29-45.87,57.84-79.78,36.56-28.58,55.17-47.86,55.17-72.46,0-23.93-15.95-44.54-45.2-44.54C98.39,69.8,72.46,111,63.82,111c-10,0-28.59-15.28-28.59-31.24,0-9.3,3.33-16,12.64-24.59,21.27-18,51.19-23.94,71.8-23.94,60.49,0,105.7,52.52,105.7,104.38,0,27.92-9.31,51.85-47.2,83.09C144.93,246.63,127,259.26,127,281.2c0,17.95,9.31,29.92,27.26,46.54ZM125,482c-23.93,0-41.21-17.28-41.21-42.55,0-23.93,16.61-42.54,41.21-42.54,23.27,0,41.22,18.61,41.22,42.54C166.2,464.69,148.25,482,125,482Z"/><path class="cls-18" d="M119.67,31.24c60.49,0,105.69,52.52,105.69,104.38,0,27.92-9.3,51.85-47.19,83.09C144.93,246.63,127,259.26,127,281.2c0,17.95,9.31,29.92,27.26,46.54l-12.63,16c-24.6-8.65-67.15-39.9-67.15-77.12,0-25.27,15.29-45.87,57.84-79.78,36.56-28.58,55.17-47.86,55.17-72.46,0-23.93-15.95-44.54-45.2-44.54C98.39,69.8,72.46,111,63.82,111c-10,0-28.58-15.28-28.58-31.24,0-9.3,3.32-16,12.63-24.59,21.27-18,51.19-23.94,71.8-23.94M125,396.88c23.27,0,41.22,18.61,41.22,42.54C166.2,464.69,148.25,482,125,482c-23.93,0-41.21-17.28-41.21-42.55,0-23.93,16.61-42.54,41.21-42.54M119.67,0C106.8,0,62.14,2.26,27.72,31.3c-.38.32-.74.64-1.11,1C16.08,42.06,4,56.29,4,79.77c0,33.65,32.89,62.48,59.82,62.48,14.72,0,24.46-8.84,33.88-17.39,11.08-10,26.24-23.82,44.57-23.82,4.18,0,14,0,14,13.3,0,10.15-12.1,23.56-43.17,47.85l-.23.18C68.74,197.5,43.22,225.81,43.22,266.58c0,44.95,38.2,82,72.15,99.64-36.43,4.51-62.84,34.47-62.84,73.2,0,42.07,31.15,73.79,72.45,73.79s72.46-31.72,72.46-73.79c0-30.45-17.25-56.06-42.56-67.44a31.14,31.14,0,0,0,11.22-8.89l12.63-16a31.24,31.24,0,0,0-3.27-42.31c-17.24-16-17.24-19.85-17.24-23.62,0-5.21,14.3-17.11,30.85-30.89,2.89-2.41,5.92-4.93,9.09-7.6,41-33.8,58.45-65.84,58.45-107.09,0-33.6-14.18-67.6-38.89-93.29C191.47,15,156.64,0,119.67,0Z"/></g></g></svg>