<svg width="25" height="42" viewBox="0 0 25 42" fill="none" xmlns="http://www.w3.org/2000/svg">
<path d="M1.52442 1.38283C1.18065 1.7259 0.907907 2.1334 0.721818 2.58201C0.535728 3.03062 0.439941 3.51152 0.439941 3.9972C0.439941 4.48287 0.535728 4.96378 0.721818 5.41239C0.907907 5.861 1.18065 6.2685 1.52442 6.61157L15.9128 20.9999L1.52442 35.3882C0.831047 36.0816 0.441512 37.022 0.441512 38.0026C0.441512 38.9832 0.831047 39.9236 1.52442 40.617C2.2178 41.3104 3.15822 41.6999 4.1388 41.6999C5.11938 41.6999 6.0598 41.3104 6.75317 40.617L23.7744 23.5957C24.1182 23.2527 24.3909 22.8452 24.577 22.3966C24.7631 21.9479 24.8589 21.467 24.8589 20.9814C24.8589 20.4957 24.7631 20.0148 24.577 19.5662C24.3909 19.1176 24.1182 18.7101 23.7744 18.367L6.75317 1.34574C5.344 -0.0634252 2.97067 -0.0634243 1.52442 1.38283Z" fill="white"/>
</svg>
