<?xml version="1.0" standalone="no"?>
<!DOCTYPE svg PUBLIC "-//W3C//DTD SVG 20010904//EN"
 "http://www.w3.org/TR/2001/REC-SVG-20010904/DTD/svg10.dtd">
<svg version="1.0" xmlns="http://www.w3.org/2000/svg"
 width="899.000000pt" height="899.000000pt" viewBox="0 0 899.000000 899.000000"
 preserveAspectRatio="xMidYMid meet">
<metadata>
Created by potrace 1.14, written by Peter Selinger 2001-2017
</metadata>
<g transform="translate(0.000000,899.000000) scale(0.100000,-0.100000)"
fill="#000000" stroke="none">
<path d="M1788 6965 c-2 -1 -34 -5 -71 -9 -292 -27 -519 -126 -618 -269 -45
-66 -66 -115 -84 -197 -16 -75 -25 -1252 -10 -1365 18 -139 62 -234 149 -320
152 -150 418 -218 849 -216 83 1 168 3 187 5 19 3 68 7 108 11 41 3 125 19
186 34 259 66 399 181 460 380 19 63 20 94 23 726 3 736 2 752 -62 881 -82
166 -289 284 -565 320 -25 3 -72 9 -105 13 -54 8 -440 13 -447 6z m376 -639
c41 -17 60 -36 77 -75 13 -33 14 -918 0 -951 -32 -77 -96 -100 -271 -96 -101
2 -134 6 -171 23 -82 37 -80 23 -77 562 l3 471 31 31 c45 45 106 58 249 55 84
-2 132 -8 159 -20z"/>
<path d="M3393 6908 c-48 -23 -48 -26 -47 -783 1 -806 -2 -772 84 -1012 148
-416 147 -414 189 -450 30 -27 13 -25 296 -27 235 -2 265 1 301 35 20 18 59
119 77 194 26 113 121 413 134 423 21 15 73 15 94 -1 13 -10 53 -126 75 -217
2 -8 19 -71 39 -140 20 -69 41 -142 46 -164 15 -60 37 -94 72 -113 27 -14 67
-17 282 -18 192 -1 256 2 277 12 27 13 88 104 88 131 0 8 6 28 14 45 25 55
145 394 162 454 25 94 28 194 28 899 0 626 -1 672 -17 698 -10 15 -29 31 -43
36 -36 14 -543 13 -583 -1 -61 -21 -60 -7 -60 -658 0 -327 -1 -595 -3 -596 -2
-2 -21 36 -42 83 -22 48 -68 147 -103 219 -58 123 -66 134 -105 154 -35 18
-62 22 -145 24 -117 1 -183 -12 -217 -44 -13 -12 -50 -79 -82 -149 -32 -70
-77 -165 -100 -212 l-41 -84 0 601 c0 551 -1 604 -17 628 -9 14 -28 30 -42 35
-35 14 -583 12 -611 -2z"/>
<path d="M6064 6906 c-17 -8 -35 -22 -39 -32 -15 -32 -14 -2144 0 -2179 24
-60 22 -59 325 -60 153 0 291 3 307 7 59 16 58 2 60 596 1 299 3 546 5 548 2
2 29 -27 59 -64 85 -103 233 -282 362 -438 l117 -142 1 -213 c1 -235 8 -270
57 -286 32 -11 567 -10 598 0 50 17 49 -13 50 1127 1 675 -2 1074 -8 1092 -19
53 -39 57 -341 58 -292 1 -322 -3 -343 -47 -5 -10 -11 -180 -14 -377 l-5 -359
-95 109 c-52 60 -99 114 -105 120 -5 6 -35 39 -65 74 -62 73 -118 136 -206
236 -34 38 -74 85 -90 104 -51 62 -116 117 -151 128 -53 16 -441 15 -479 -2z"/>
<path d="M2017 4184 c-1 -1 -47 -4 -102 -8 -277 -16 -540 -97 -668 -204 -119
-100 -174 -204 -205 -387 -4 -22 -7 -357 -7 -745 0 -650 1 -711 18 -780 39
-158 128 -295 239 -369 86 -57 239 -112 370 -134 l73 -13 6 -129 c3 -72 9
-138 13 -148 5 -10 25 -26 45 -36 32 -16 69 -17 357 -16 412 1 396 -8 398 202
1 136 -3 127 73 138 125 17 272 70 370 132 140 88 229 226 260 402 9 53 12
1407 3 1471 -26 177 -68 273 -162 369 -56 56 -109 93 -192 131 -67 30 -199 72
-266 84 -159 29 -268 38 -468 40 -84 1 -154 1 -155 0z m306 -722 c57 -15 105
-52 119 -92 8 -25 11 -185 11 -556 0 -519 0 -521 -22 -561 -28 -48 -45 -60
-119 -77 -69 -16 -279 -14 -339 3 -56 16 -100 54 -113 99 -8 25 -10 210 -8
569 l3 531 25 27 c29 32 77 54 128 61 20 2 37 6 39 8 8 8 239 -3 276 -12z"/>
<path d="M4210 4115 c-229 -39 -406 -156 -485 -320 -60 -124 -64 -163 -61
-515 1 -173 5 -326 9 -339 46 -171 116 -260 262 -333 51 -26 158 -66 194 -73
19 -3 224 -34 266 -40 18 -2 63 -9 145 -20 14 -2 48 -7 75 -10 28 -4 61 -8 75
-10 14 -3 43 -7 65 -10 60 -9 95 -51 95 -116 0 -66 -38 -109 -97 -110 -21 0
-257 0 -525 -1 -457 -1 -489 -2 -518 -19 -17 -11 -35 -31 -40 -45 -6 -14 -10
-137 -10 -277 0 -270 3 -283 52 -320 25 -19 44 -19 655 -18 596 0 663 2 758
17 105 16 257 76 322 127 53 42 123 122 150 173 65 121 71 169 72 506 1 325
-5 379 -53 484 -50 109 -168 202 -331 261 -51 18 -179 43 -300 58 -142 18
-202 26 -220 29 -11 2 -65 10 -120 16 -55 7 -108 17 -117 22 -59 30 -63 162
-6 197 16 10 116 13 474 13 497 0 504 1 532 60 15 33 19 519 4 558 -5 14 -20
34 -32 45 -22 19 -37 20 -619 21 -444 1 -615 -1 -671 -11z"/>
<path d="M5975 4116 c-56 -24 -59 -40 -59 -337 0 -255 2 -271 21 -297 11 -15
34 -32 50 -37 18 -6 146 -10 307 -10 180 0 276 -3 277 -10 1 -5 2 -415 3 -910
1 -697 4 -905 14 -922 29 -52 48 -55 408 -55 310 0 336 1 366 19 20 12 37 32
44 53 8 24 11 298 12 914 0 485 1 888 1 896 1 13 37 15 277 15 162 0 289 4
306 10 17 5 40 22 52 38 19 26 20 41 21 288 0 154 -4 273 -10 292 -6 21 -22
38 -45 49 -33 17 -102 18 -1025 18 -793 -1 -996 -3 -1020 -14z"/>
</g>
</svg>
